<svg width="187" height="58" viewBox="0 0 187 58" fill="none" xmlns="http://www.w3.org/2000/svg">
<path d="M49.3617 33H44.3461L43.0219 29.707H35.9672L34.6195 33H29.6039L36.7875 16.7578H42.2016L49.3617 33ZM41.8969 26.8828L39.518 20.9531L37.1156 26.8828H41.8969ZM63.6281 27.1172C63.6281 28.5 63.3586 29.6484 62.8195 30.5625C62.2805 31.4688 61.593 32.1367 60.757 32.5664C59.9211 32.9961 59.0695 33.2109 58.2023 33.2109C57.5773 33.2109 57.0344 33.1406 56.5734 33C56.1203 32.8516 55.7648 32.6953 55.507 32.5312C55.257 32.3594 54.9953 32.1562 54.7219 31.9219V33H50.5031V16.7578H54.7219V21.7734C55.0344 21.5312 55.4641 21.3203 56.0109 21.1406C56.5578 20.9531 57.1906 20.8594 57.9094 20.8594C58.8703 20.8594 59.718 21.0352 60.4523 21.3867C61.1867 21.7305 61.7844 22.1992 62.2453 22.793C62.7141 23.3867 63.0617 24.0547 63.2883 24.7969C63.5148 25.5312 63.6281 26.3047 63.6281 27.1172ZM59.1867 27.0234C59.1867 26 58.9562 25.2227 58.4953 24.6914C58.0344 24.1523 57.4875 23.8828 56.8547 23.8828C56.2219 23.8828 55.5109 24.1367 54.7219 24.6445V29.2031C55.3156 29.7656 56.0266 30.0469 56.8547 30.0469C57.3781 30.0469 57.8977 29.8359 58.4133 29.4141C58.9289 28.9844 59.1867 28.1875 59.1867 27.0234ZM78.7031 27.0234C78.7031 28.2109 78.4453 29.2695 77.9297 30.1992C77.4141 31.1289 76.6406 31.8633 75.6094 32.4023C74.5859 32.9414 73.3359 33.2109 71.8594 33.2109C70.3828 33.2109 69.1289 32.9414 68.0977 32.4023C67.0742 31.8633 66.3047 31.1289 65.7891 30.1992C65.2812 29.2695 65.0273 28.2109 65.0273 27.0234C65.0273 26.125 65.168 25.3086 65.4492 24.5742C65.7383 23.8398 66.1719 23.1914 66.75 22.6289C67.3359 22.0586 68.0547 21.6211 68.9062 21.3164C69.7578 21.0117 70.7422 20.8594 71.8594 20.8594C72.9844 20.8594 73.9766 21.0156 74.8359 21.3281C75.7031 21.6328 76.418 22.0625 76.9805 22.6172C77.5508 23.1719 77.9805 23.8203 78.2695 24.5625C78.5586 25.3047 78.7031 26.125 78.7031 27.0234ZM74.2617 27.0234C74.2617 26.0781 74.0547 25.3398 73.6406 24.8086C73.2344 24.2695 72.6406 24 71.8594 24C71.0859 24 70.4922 24.2695 70.0781 24.8086C69.6719 25.3398 69.4688 26.0781 69.4688 27.0234C69.4688 27.9609 69.6758 28.7031 70.0898 29.25C70.5039 29.7969 71.0938 30.0703 71.8594 30.0703C72.6406 30.0703 73.2344 29.8008 73.6406 29.2617C74.0547 28.7148 74.2617 27.9688 74.2617 27.0234ZM93.1805 33H88.95V31.3008C88.3562 31.9414 87.7312 32.4219 87.075 32.7422C86.4266 33.0547 85.6453 33.2109 84.7312 33.2109C82.9266 33.2109 81.7586 32.6875 81.2273 31.6406C80.6961 30.5859 80.4305 29.3984 80.4305 28.0781V21.0703H84.6609V27.5156C84.6609 28.1641 84.7664 28.7344 84.9773 29.2266C85.1961 29.7109 85.6648 29.9531 86.3836 29.9531C87.0008 29.9531 87.4891 29.7773 87.8484 29.4258C88.2078 29.0742 88.575 28.625 88.95 28.0781V21.0703H93.1805V33ZM104.998 32.3086C104.56 32.5195 103.955 32.7227 103.181 32.918C102.416 33.1133 101.681 33.2109 100.978 33.2109C97.9391 33.2109 96.4195 31.7266 96.4195 28.7578V24H94.5094V23.2617L100.17 17.4961H100.65V21.0703H104.681V24H100.65V27.8203C100.65 28.2656 100.677 28.625 100.732 28.8984C100.787 29.1719 100.939 29.4023 101.189 29.5898C101.447 29.7695 101.834 29.8594 102.349 29.8594C103.021 29.8594 103.904 29.5781 104.998 29.0156V32.3086Z" fill="#333333"/>
<path d="M128.114 42.9701C127.175 42.5769 126.407 41.9029 125.867 41.3974C123.591 39.3193 122.367 36.483 123.591 33.3097C124.444 31.0912 127.09 29.35 129.736 29.6309C132.609 29.9398 134.487 32.046 134.715 34.6576C134.828 35.8371 134.402 36.9323 133.804 37.8871C132.496 39.9652 130.646 41.7063 128.541 42.7454C124.786 44.6269 120.803 46.0591 116.649 47.0139C110.02 48.5023 103.334 49.5694 96.6202 50.5804C89.2232 51.7037 81.8262 52.827 74.4577 53.9503C68.7108 54.8209 62.9639 55.3825 57.1601 55.8318C53.6323 56.1127 50.1046 56.1969 46.5768 56.2812C42.2808 56.3654 38.0133 56.4497 33.7174 56.3935C26.861 56.3092 19.9761 56.225 13.1481 55.4948C9.99017 55.1579 6.86068 54.6243 3.84499 53.6695C3.24754 53.4729 2.5363 53.3325 2.10955 52.7147C1.9104 52.4339 1.3983 52.4339 1 52.4619" stroke="black" stroke-width="2" stroke-miterlimit="10" stroke-linecap="round" stroke-linejoin="round"/>
<path d="M127.114 42.97C127.797 43.4474 128.48 43.7563 129.077 43.981C131.581 44.992 134.255 45.6379 136.986 45.8064C138.409 45.9187 139.917 45.694 141.368 45.5817C142.619 45.4975 146.802 44.1495 148.281 43.2509C151.183 41.5097 153.516 39.207 156.048 36.146" stroke="black" stroke-width="2" stroke-miterlimit="10" stroke-linecap="round" stroke-linejoin="round"/>
<path d="M161.081 34.6479C159.186 35.2367 158.282 35.6729 156.926 35.7819C156.754 35.8037 156.56 35.7819 156.431 35.6729C156.301 35.5638 156.237 35.3894 156.237 35.2149C156.237 34.7787 156.258 34.5388 156.323 33.7973C156.344 33.4266 156.366 33.4266 156.409 32.9031C156.431 32.576 156.538 31.5074 156.689 30.9622C157.098 31.2021 157.356 31.5074 157.701 31.7909C158.088 32.118 158.454 32.4234 158.842 32.7505C159.229 33.0776 159.595 33.3829 159.983 33.7101C160.177 33.8627 160.37 34.0372 160.564 34.1899C160.586 34.2335 161.038 34.6697 161.081 34.6479Z" fill="black" stroke="black" stroke-width="2" stroke-miterlimit="10" stroke-linecap="round" stroke-linejoin="round"/>
<path d="M157.572 25.5969C157.55 25.6405 157.55 25.6842 157.529 25.7278C157.163 27.4289 157.012 29.2608 156.646 30.9619" stroke="black" stroke-width="2" stroke-miterlimit="10" stroke-linecap="round" stroke-linejoin="round"/>
<path d="M184.699 9.50219C184.785 9.56762 184.806 9.67666 184.763 9.78571C184.505 10.3964 184.053 10.8107 183.687 11.2469C178.52 17.6369 173.31 23.9833 168.121 30.3515C167.733 30.8094 167.346 31.2892 166.915 31.6818C166.765 31.8127 166.506 31.7254 166.506 31.5073C166.485 31.1366 166.42 30.7876 166.334 30.6132C165.947 29.8717 165.387 29.4355 164.526 29.4791C163.987 29.5227 163.923 29.3919 163.794 28.8466C163.621 27.4509 162.566 26.5349 161.059 27.0583C160.909 27.1237 160.736 27.0147 160.715 26.8402C160.693 26.644 160.693 26.4259 160.65 26.2078C160.564 25.5753 160.155 25.0519 159.509 24.7684C158.777 24.4194 157.808 24.812 157.572 25.5971C158.067 23.9615 160.263 21.8024 160.564 21.4098C164.073 16.939 166.549 14.1475 170.102 9.69847C171.846 7.47397 173.633 5.27127 175.419 3.06858C176.281 1.99995 176.302 1.99995 177.228 2.80687C178.778 4.15902 180.328 5.53298 181.878 6.90694C182.847 7.75748 183.773 8.65165 184.699 9.50219Z" fill="#  rgb(232, 240, 254)" stroke="black" stroke-width="2" stroke-miterlimit="10" stroke-linecap="round" stroke-linejoin="round"/>
<path d="M161.081 34.6479C162.674 33.8846 164.289 33.2085 165.86 32.4234C166.076 32.3143 166.7 31.8345 166.894 31.6819" stroke="black" stroke-width="2" stroke-miterlimit="10" stroke-linecap="round" stroke-linejoin="round"/>
</svg>
