<svg width="212" height="34" viewBox="0 0 212 34" fill="none" xmlns="http://www.w3.org/2000/svg">
<path d="M19.0051 25H0.495316V0.636719H7.84297V19.1641H19.0051V25ZM40.291 17.582H27.6875C27.9336 18.6719 28.5371 19.5625 29.4981 20.2539C30.459 20.9453 31.5488 21.291 32.7676 21.291C34.9004 21.291 37.2559 20.6934 39.834 19.498V23.418C38.9082 23.8984 37.7832 24.3379 36.459 24.7363C35.1465 25.123 33.4707 25.3164 31.4316 25.3164C29.2285 25.3164 27.3535 24.9062 25.8066 24.0859C24.2598 23.2656 23.0996 22.1523 22.3262 20.7461C21.5645 19.3398 21.1836 17.7461 21.1836 15.9648C21.1836 14.207 21.5645 12.6367 22.3262 11.2539C23.0996 9.85938 24.2598 8.76953 25.8066 7.98438C27.3535 7.1875 29.2285 6.78906 31.4316 6.78906C32.8848 6.78906 34.2852 7.10547 35.6328 7.73828C36.9922 8.35938 38.1055 9.38477 38.9727 10.8145C39.8516 12.2324 40.291 14.0664 40.291 16.3164V17.582ZM34.3496 14.4531C34.3496 13.3047 34.0625 12.3906 33.4883 11.7109C32.9258 11.0195 32.1113 10.6738 31.0449 10.6738C29.9902 10.6738 29.1348 11.0254 28.4785 11.7285C27.834 12.4199 27.5117 13.3281 27.5117 14.4531H34.3496ZM57.2352 23.9629C56.5789 24.2793 55.6707 24.584 54.5106 24.877C53.3621 25.1699 52.2606 25.3164 51.2059 25.3164C46.6473 25.3164 44.368 23.0898 44.368 18.6367V11.5H41.5027V10.3926L49.993 1.74414H50.7137V7.10547H56.7606V11.5H50.7137V17.2305C50.7137 17.8984 50.7547 18.4375 50.8367 18.8477C50.9188 19.2578 51.1473 19.6035 51.5223 19.8848C51.909 20.1543 52.4891 20.2891 53.2625 20.2891C54.2703 20.2891 55.5945 19.8672 57.2352 19.0234V23.9629ZM66.2691 4.87305L65.1617 10.0586H60.2926L59.15 4.87305V0.636719H66.2691V4.87305ZM83.4418 19.7793C83.4418 21.4199 82.8383 22.7559 81.6313 23.7871C80.4359 24.8066 78.6547 25.3164 76.2875 25.3164C74.9633 25.3164 73.7856 25.1992 72.7543 24.9648C71.7231 24.7188 70.5981 24.373 69.3793 23.9277V19.4277C70.4457 20.0371 71.3715 20.5 72.1566 20.8164C72.9418 21.1328 73.8031 21.291 74.7406 21.291C76.3227 21.291 77.1137 20.8574 77.1137 19.9902C77.1137 19.6973 76.9965 19.4395 76.7621 19.2168C76.5395 18.9824 76.141 18.7246 75.5668 18.4434C75.0043 18.1504 74.2484 17.8047 73.2992 17.4062C72.1273 16.8906 71.1313 16.1992 70.3109 15.332C69.4906 14.4648 69.0805 13.4043 69.0805 12.1504C69.0805 11.2598 69.35 10.4043 69.8891 9.58398C70.4398 8.76367 71.266 8.0957 72.3676 7.58008C73.4691 7.05273 74.7992 6.78906 76.3578 6.78906C76.7328 6.78906 77.2074 6.81836 77.7816 6.87695C78.3676 6.92383 79.1 7.05859 79.9789 7.28125C80.8695 7.50391 81.7133 7.82031 82.5102 8.23047V12.6074C82.1352 12.3848 81.8188 12.1973 81.5609 12.0449C81.3148 11.8926 80.9809 11.7227 80.559 11.5352C80.1371 11.3477 79.6391 11.1836 79.0648 11.043C78.5023 10.8906 77.9223 10.8145 77.3246 10.8145C76.5981 10.8145 76.1 10.9551 75.8305 11.2363C75.5609 11.5176 75.4262 11.7988 75.4262 12.0801C75.4262 12.373 75.5668 12.6484 75.8481 12.9062C76.1293 13.1523 76.7563 13.4629 77.7289 13.8379C79.1352 14.377 80.2602 14.9336 81.1039 15.5078C81.9477 16.0703 82.5453 16.6914 82.8969 17.3711C83.2602 18.0508 83.4418 18.8535 83.4418 19.7793ZM116.627 16.1758C116.627 18.25 116.223 19.9727 115.414 21.3438C114.605 22.7031 113.574 23.7051 112.32 24.3496C111.066 24.9941 109.789 25.3164 108.488 25.3164C107.551 25.3164 106.736 25.2109 106.045 25C105.365 24.7773 104.832 24.543 104.445 24.2969C104.07 24.0391 103.678 23.7344 103.268 23.3828V25H96.9395V0.636719H103.268V8.16016C103.736 7.79688 104.381 7.48047 105.201 7.21094C106.021 6.92969 106.971 6.78906 108.049 6.78906C109.49 6.78906 110.762 7.05273 111.863 7.58008C112.965 8.0957 113.861 8.79883 114.553 9.68945C115.256 10.5801 115.777 11.582 116.117 12.6953C116.457 13.7969 116.627 14.957 116.627 16.1758ZM109.965 16.0352C109.965 14.5 109.619 13.334 108.928 12.5371C108.236 11.7285 107.416 11.3242 106.467 11.3242C105.518 11.3242 104.451 11.7051 103.268 12.4668V19.3047C104.158 20.1484 105.225 20.5703 106.467 20.5703C107.252 20.5703 108.031 20.2539 108.805 19.6211C109.578 18.9766 109.965 17.7812 109.965 16.0352ZM137.983 17.582H125.38C125.626 18.6719 126.229 19.5625 127.19 20.2539C128.151 20.9453 129.241 21.291 130.46 21.291C132.593 21.291 134.948 20.6934 137.526 19.498V23.418C136.6 23.8984 135.475 24.3379 134.151 24.7363C132.839 25.123 131.163 25.3164 129.124 25.3164C126.921 25.3164 125.046 24.9062 123.499 24.0859C121.952 23.2656 120.792 22.1523 120.018 20.7461C119.257 19.3398 118.876 17.7461 118.876 15.9648C118.876 14.207 119.257 12.6367 120.018 11.2539C120.792 9.85938 121.952 8.76953 123.499 7.98438C125.046 7.1875 126.921 6.78906 129.124 6.78906C130.577 6.78906 131.977 7.10547 133.325 7.73828C134.684 8.35938 135.798 9.38477 136.665 10.8145C137.544 12.2324 137.983 14.0664 137.983 16.3164V17.582ZM132.042 14.4531C132.042 13.3047 131.755 12.3906 131.18 11.7109C130.618 11.0195 129.804 10.6738 128.737 10.6738C127.682 10.6738 126.827 11.0254 126.171 11.7285C125.526 12.4199 125.204 13.3281 125.204 14.4531H132.042ZM158.812 10.9199H155.683C156.785 11.8809 157.336 13.0586 157.336 14.4531C157.336 15.1914 157.177 15.9004 156.861 16.5801C156.556 17.2598 156.099 17.8633 155.49 18.3906C154.892 18.918 154.148 19.3516 153.257 19.6914C152.379 20.0195 151.371 20.2188 150.234 20.2891C148.769 20.3477 148.037 20.7402 148.037 21.4668C148.037 21.748 148.13 21.9531 148.318 22.082C148.505 22.2109 148.798 22.3105 149.197 22.3809C149.607 22.4395 150.293 22.5098 151.254 22.5918C152.343 22.6855 153.357 22.8496 154.295 23.084C155.232 23.3184 156.105 23.8105 156.914 24.5605C157.722 25.3105 158.127 26.3828 158.127 27.7773C158.127 28.8906 157.822 29.875 157.213 30.7305C156.615 31.5859 155.642 32.2539 154.295 32.7344C152.947 33.2148 151.166 33.4551 148.951 33.4551C145.763 33.4551 143.42 33.0273 141.92 32.1719C140.431 31.3164 139.687 30.1738 139.687 28.7441C139.687 28.3574 139.781 27.9121 139.968 27.4082C140.168 26.9043 140.578 26.418 141.199 25.9492C141.832 25.4805 142.746 25.1641 143.941 25C143.519 24.8477 143.156 24.5547 142.851 24.1211C142.546 23.6758 142.394 23.2129 142.394 22.7324C142.394 22.1113 142.605 21.4961 143.027 20.8867C143.461 20.2773 144.158 19.8848 145.119 19.709C143.783 19.3574 142.629 18.6953 141.656 17.7227C140.683 16.75 140.197 15.4902 140.197 13.9434C140.197 12.7715 140.42 11.7461 140.865 10.8672C141.322 9.98828 141.949 9.27344 142.746 8.72266C143.543 8.17188 144.468 7.76758 145.523 7.50977C146.578 7.24023 147.732 7.10547 148.986 7.10547H158.812V10.9199ZM151.816 13.9434C151.816 13.041 151.505 12.3203 150.884 11.7812C150.275 11.2305 149.589 10.9551 148.828 10.9551C147.855 10.9551 147.088 11.2832 146.525 11.9395C145.974 12.5957 145.699 13.2871 145.699 14.0137C145.699 14.5176 145.816 14.9863 146.05 15.4199C146.296 15.8535 146.636 16.2051 147.07 16.4746C147.515 16.7324 148.043 16.8613 148.652 16.8613C149.566 16.8613 150.322 16.5742 150.92 16C151.517 15.4258 151.816 14.7402 151.816 13.9434ZM153.082 28.3398C153.082 27.5547 152.66 27.0449 151.816 26.8105C150.984 26.5879 150.123 26.4766 149.232 26.4766C147.767 26.4766 146.707 26.6289 146.05 26.9336C145.406 27.25 145.084 27.748 145.084 28.4277C145.084 29.7637 146.431 30.4316 149.127 30.4316C150.334 30.4316 151.295 30.2559 152.009 29.9043C152.724 29.5645 153.082 29.043 153.082 28.3398ZM166.95 2.97461C166.95 3.71289 166.686 4.33984 166.159 4.85547C165.631 5.37109 165.004 5.62891 164.278 5.62891C163.786 5.62891 163.334 5.51172 162.924 5.27734C162.526 5.04297 162.209 4.72656 161.975 4.32812C161.741 3.91797 161.623 3.4668 161.623 2.97461C161.623 2.24805 161.881 1.62109 162.397 1.09375C162.913 0.566406 163.539 0.302734 164.278 0.302734C165.004 0.302734 165.631 0.566406 166.159 1.09375C166.686 1.62109 166.95 2.24805 166.95 2.97461ZM167.459 25H161.114V7.10547H167.459V25ZM190.644 25H184.316V15.3496C184.316 14.3652 184.152 13.5098 183.823 12.7832C183.507 12.0449 182.804 11.6758 181.714 11.6758C181.198 11.6758 180.741 11.7754 180.343 11.9746C179.956 12.1621 179.605 12.4082 179.288 12.7129C178.984 13.0176 178.726 13.3105 178.515 13.5918C178.304 13.873 178.087 14.1719 177.864 14.4883V25H171.536V7.10547H177.864V9.67188C178.861 8.60547 179.857 7.86133 180.853 7.43945C181.861 7.00586 182.98 6.78906 184.21 6.78906C188.499 6.78906 190.644 9.35547 190.644 14.4883V25ZM201.348 5.69922C201.348 6.625 201.219 7.7793 200.961 9.16211C200.715 10.5449 200.398 11.9102 200.012 13.2578C199.625 14.6055 199.291 15.5547 199.01 16.1055C198.846 16.4219 198.67 16.6445 198.482 16.7734C198.295 16.9023 198.002 16.9668 197.604 16.9668C197.217 16.9668 196.93 16.9082 196.742 16.791C196.566 16.6621 196.385 16.4336 196.197 16.1055C195.881 15.4727 195.529 14.5117 195.143 13.2227C194.768 11.9219 194.445 10.5859 194.176 9.21484C193.918 7.84375 193.789 6.67187 193.789 5.69922C193.789 3.84766 194.188 2.48828 194.984 1.62109C195.781 0.742188 196.654 0.302734 197.604 0.302734C198.553 0.302734 199.414 0.736328 200.188 1.60352C200.961 2.4707 201.348 3.83594 201.348 5.69922ZM201.348 21.5371C201.348 22.5918 200.984 23.4883 200.258 24.2266C199.543 24.9531 198.658 25.3164 197.604 25.3164C196.959 25.3164 196.338 25.1523 195.74 24.8242C195.143 24.4844 194.668 24.0215 194.316 23.4355C193.965 22.8379 193.789 22.2051 193.789 21.5371C193.789 20.8574 193.959 20.2305 194.299 19.6562C194.65 19.0703 195.119 18.6074 195.705 18.2676C196.291 17.9277 196.924 17.7578 197.604 17.7578C198.26 17.7578 198.881 17.9277 199.467 18.2676C200.064 18.6074 200.527 19.0645 200.855 19.6387C201.184 20.2129 201.348 20.8457 201.348 21.5371ZM211.911 5.69922C211.911 6.625 211.782 7.7793 211.524 9.16211C211.278 10.5449 210.962 11.9102 210.575 13.2578C210.188 14.6055 209.854 15.5547 209.573 16.1055C209.409 16.4219 209.233 16.6445 209.046 16.7734C208.858 16.9023 208.565 16.9668 208.167 16.9668C207.78 16.9668 207.493 16.9082 207.305 16.791C207.13 16.6621 206.948 16.4336 206.761 16.1055C206.444 15.4727 206.093 14.5117 205.706 13.2227C205.331 11.9219 205.009 10.5859 204.739 9.21484C204.481 7.84375 204.352 6.67187 204.352 5.69922C204.352 3.84766 204.751 2.48828 205.548 1.62109C206.345 0.742188 207.218 0.302734 208.167 0.302734C209.116 0.302734 209.977 0.736328 210.751 1.60352C211.524 2.4707 211.911 3.83594 211.911 5.69922ZM211.911 21.5371C211.911 22.5918 211.548 23.4883 210.821 24.2266C210.106 24.9531 209.221 25.3164 208.167 25.3164C207.522 25.3164 206.901 25.1523 206.304 24.8242C205.706 24.4844 205.231 24.0215 204.88 23.4355C204.528 22.8379 204.352 22.2051 204.352 21.5371C204.352 20.8574 204.522 20.2305 204.862 19.6562C205.214 19.0703 205.682 18.6074 206.268 18.2676C206.854 17.9277 207.487 17.7578 208.167 17.7578C208.823 17.7578 209.444 17.9277 210.03 18.2676C210.628 18.6074 211.091 19.0645 211.419 19.6387C211.747 20.2129 211.911 20.8457 211.911 21.5371Z" fill="white"/>
</svg>
