<svg xmlns="http://www.w3.org/2000/svg" viewBox="0 0 595 595"><defs><style>.cls-1{fill:#5c5c5c;}</style></defs><g id="線"><path class="cls-1" d="M297.5,44.48c61.88,0,116.3,23.93,153.22,67.38a182.1,182.1,0,0,1,36,66.78,168.79,168.79,0,0,1,4.62,74.62l-.06.41-.06.41c-4.71,35.36-20.79,72-46.49,106.08l0,0v0c-13.32,17.7-26.69,32.34-39.63,46.49-32.37,35.42-63,68.88-63.58,126.16v1c.17,6.87.38,12.08.63,16.68H252.65c.25-4.6.46-9.83.63-16.68v-1C252.7,475.5,222.05,442,189.6,406.51c-12.91-14.11-26.25-28.69-39.55-46.33-25.56-34.06-41.56-70.74-46.26-106.09l-.05-.42-.07-.41a168.79,168.79,0,0,1,4.62-74.62,182.1,182.1,0,0,1,36-66.78C181.2,68.41,235.62,44.48,297.5,44.48m0-28C148.25,16.48,56.78,140.07,76,257.78,81.91,302,102.13,343,127.69,377c48.15,63.84,96.92,90.13,97.59,156.14-.38,16.13-1,22.48-2,34.66a9.62,9.62,0,0,0,8.51,10.63,9.42,9.42,0,0,0,1.06.06h129a9.91,9.91,0,0,0,9.65-10.17c0-.18,0-.35,0-.52-1-12.18-1.64-18.53-2-34.66.72-66,49.58-92.3,97.59-156.14,25.8-34.18,46-75.2,51.89-119.25,19.26-117.71-72.21-241.3-221.46-241.3Z"/></g></svg>