<svg width="228" height="61" viewBox="0 0 228 61" fill="none" xmlns="http://www.w3.org/2000/svg">
<path d="M170.19 42.9539C168.941 42.4554 167.918 41.6006 167.199 40.9596C164.169 38.3243 162.541 34.7273 164.169 30.7031C165.305 27.8897 168.827 25.6817 172.349 26.0378C176.173 26.4295 178.673 29.1005 178.975 32.4125C179.127 33.9082 178.559 35.2971 177.764 36.508C176.022 39.1433 173.56 41.3514 170.758 42.669C165.76 45.0551 160.458 46.8714 154.93 48.0822C146.107 49.9697 137.208 51.323 128.271 52.6051C118.426 54.0296 108.581 55.4541 98.7729 56.8786C91.1238 57.9826 83.4746 58.6949 75.7497 59.2647C71.0542 59.6208 66.3587 59.7276 61.6631 59.8345C55.9452 59.9413 50.2651 60.0482 44.5472 59.9769C35.4212 59.8701 26.2574 59.7633 17.1693 58.8373C12.966 58.41 8.80063 57.7333 4.78671 56.5225C3.9915 56.2732 3.04482 56.0951 2.47682 55.3116C2.21175 54.9555 1.53014 54.9555 1 54.9911" stroke="black" stroke-width="2" stroke-miterlimit="10" stroke-linecap="round" stroke-linejoin="round"/>
<path d="M168 42.97C168.683 43.4474 169.366 43.7563 169.963 43.981C172.467 44.992 175.141 45.6379 177.872 45.8064C179.295 45.9187 180.802 45.694 182.253 45.5817C183.505 45.4975 187.687 44.1495 189.167 43.2509C192.069 41.5097 194.402 39.207 196.934 36.146" stroke="black" stroke-width="2" stroke-miterlimit="10" stroke-linecap="round" stroke-linejoin="round"/>
<path d="M51.7687 25.4258H45.0305V32H40.132V15.7578H51.7687V19.0156H45.0305V22.1562H51.7687V25.4258ZM65.9531 27.0547H57.5508C57.7148 27.7812 58.1172 28.375 58.7578 28.8359C59.3984 29.2969 60.125 29.5273 60.9375 29.5273C62.3594 29.5273 63.9297 29.1289 65.6484 28.332V30.9453C65.0312 31.2656 64.2812 31.5586 63.3984 31.8242C62.5234 32.082 61.4062 32.2109 60.0469 32.2109C58.5781 32.2109 57.3281 31.9375 56.2969 31.3906C55.2656 30.8438 54.4922 30.1016 53.9766 29.1641C53.4687 28.2266 53.2148 27.1641 53.2148 25.9766C53.2148 24.8047 53.4687 23.7578 53.9766 22.8359C54.4922 21.9062 55.2656 21.1797 56.2969 20.6562C57.3281 20.125 58.5781 19.8594 60.0469 19.8594C61.0156 19.8594 61.9492 20.0703 62.8477 20.4922C63.7539 20.9062 64.4961 21.5898 65.0742 22.543C65.6602 23.4883 65.9531 24.7109 65.9531 26.2109V27.0547ZM61.9922 24.9688C61.9922 24.2031 61.8008 23.5938 61.418 23.1406C61.043 22.6797 60.5 22.4492 59.7891 22.4492C59.0859 22.4492 58.5156 22.6836 58.0781 23.1523C57.6484 23.6133 57.4336 24.2188 57.4336 24.9688H61.9922ZM80.1141 31.4023C79.4969 31.6445 78.9266 31.8398 78.4031 31.9883C77.8797 32.1367 77.2508 32.2109 76.5164 32.2109C75.8211 32.2109 75.3367 32.0898 75.0633 31.8477C74.7898 31.5977 74.5945 31.2969 74.4773 30.9453C74.0242 31.3125 73.5203 31.6172 72.9656 31.8594C72.4109 32.0938 71.6844 32.2109 70.7859 32.2109C69.9187 32.2109 69.2156 32.0625 68.6766 31.7656C68.1453 31.4609 67.7703 31.082 67.5516 30.6289C67.3406 30.168 67.2352 29.6953 67.2352 29.2109C67.2352 28.4766 67.4187 27.8711 67.7859 27.3945C68.1609 26.9102 68.6609 26.5156 69.2859 26.2109C69.9109 25.9062 70.7391 25.5898 71.7703 25.2617C72.3562 25.0742 72.7977 24.9336 73.0945 24.8398C73.3992 24.7383 73.6258 24.6602 73.7742 24.6055C73.9227 24.5508 74.0789 24.4805 74.243 24.3945C74.243 23.8164 74.1258 23.3633 73.8914 23.0352C73.657 22.707 73.1492 22.543 72.368 22.543C71.4461 22.543 70.5906 22.7461 69.8016 23.1523C69.0125 23.5586 68.2898 24.082 67.6336 24.7227V21.4883C68.157 21.1133 68.7234 20.8086 69.3328 20.5742C69.9422 20.332 70.5789 20.1523 71.243 20.0352C71.907 19.918 72.5789 19.8594 73.2586 19.8594C74.9852 19.8594 76.282 20.1953 77.1492 20.8672C78.0242 21.5312 78.4617 22.4492 78.4617 23.6211V28.2266C78.4617 28.6641 78.5008 28.9922 78.5789 29.2109C78.6648 29.4219 78.8172 29.5273 79.0359 29.5273C79.3016 29.5273 79.6609 29.4141 80.1141 29.1875V31.4023ZM74.243 29.1172V26.293C73.243 26.6992 72.5125 27.0664 72.0516 27.3945C71.5906 27.7148 71.3602 28.1523 71.3602 28.707C71.3602 29.1055 71.4734 29.4102 71.7 29.6211C71.9344 29.832 72.2039 29.9375 72.5086 29.9375C72.7977 29.9375 73.0828 29.8594 73.3641 29.7031C73.6531 29.5391 73.9461 29.3438 74.243 29.1172ZM90.5602 31.3086C90.1227 31.5195 89.5172 31.7227 88.7437 31.918C87.9781 32.1133 87.2437 32.2109 86.5406 32.2109C83.5016 32.2109 81.982 30.7266 81.982 27.7578V23H80.0719V22.2617L85.732 16.4961H86.2125V20.0703H90.2437V23H86.2125V26.8203C86.2125 27.2656 86.2398 27.625 86.2945 27.8984C86.3492 28.1719 86.5016 28.4023 86.7516 28.5898C87.0094 28.7695 87.3961 28.8594 87.9117 28.8594C88.5836 28.8594 89.4664 28.5781 90.5602 28.0156V31.3086ZM104.698 32H100.467V30.3008C99.8734 30.9414 99.2484 31.4219 98.5922 31.7422C97.9437 32.0547 97.1625 32.2109 96.2484 32.2109C94.4437 32.2109 93.2758 31.6875 92.7445 30.6406C92.2133 29.5859 91.9477 28.3984 91.9477 27.0781V20.0703H96.1781V26.5156C96.1781 27.1641 96.2836 27.7344 96.4945 28.2266C96.7133 28.7109 97.182 28.9531 97.9008 28.9531C98.518 28.9531 99.0062 28.7773 99.3656 28.4258C99.725 28.0742 100.092 27.625 100.467 27.0781V20.0703H104.698V32ZM117.593 20.7148L116.034 24.9453C115.394 24.3359 114.745 24.0312 114.089 24.0312C113.495 24.0312 112.98 24.2344 112.542 24.6406C112.113 25.0391 111.698 25.7812 111.3 26.8672V32H107.081V20.0703H111.3V22.9531C111.566 22.2422 112.034 21.5508 112.706 20.8789C113.378 20.1992 114.167 19.8594 115.073 19.8594C115.55 19.8594 115.964 19.9297 116.316 20.0703C116.675 20.2109 117.101 20.4258 117.593 20.7148ZM129.844 27.0547H121.441C121.605 27.7812 122.008 28.375 122.648 28.8359C123.289 29.2969 124.016 29.5273 124.828 29.5273C126.25 29.5273 127.82 29.1289 129.539 28.332V30.9453C128.922 31.2656 128.172 31.5586 127.289 31.8242C126.414 32.082 125.297 32.2109 123.938 32.2109C122.469 32.2109 121.219 31.9375 120.188 31.3906C119.156 30.8438 118.383 30.1016 117.867 29.1641C117.359 28.2266 117.105 27.1641 117.105 25.9766C117.105 24.8047 117.359 23.7578 117.867 22.8359C118.383 21.9062 119.156 21.1797 120.188 20.6562C121.219 20.125 122.469 19.8594 123.938 19.8594C124.906 19.8594 125.84 20.0703 126.738 20.4922C127.645 20.9062 128.387 21.5898 128.965 22.543C129.551 23.4883 129.844 24.7109 129.844 26.2109V27.0547ZM125.883 24.9688C125.883 24.2031 125.691 23.5938 125.309 23.1406C124.934 22.6797 124.391 22.4492 123.68 22.4492C122.977 22.4492 122.406 22.6836 121.969 23.1523C121.539 23.6133 121.324 24.2188 121.324 24.9688H125.883ZM140.958 28.5195C140.958 29.6133 140.555 30.5039 139.751 31.1914C138.954 31.8711 137.766 32.2109 136.188 32.2109C135.305 32.2109 134.52 32.1328 133.833 31.9766C133.145 31.8125 132.395 31.582 131.583 31.2852V28.2852C132.294 28.6914 132.911 29 133.434 29.2109C133.958 29.4219 134.532 29.5273 135.157 29.5273C136.212 29.5273 136.739 29.2383 136.739 28.6602C136.739 28.4648 136.661 28.293 136.505 28.1445C136.356 27.9883 136.091 27.8164 135.708 27.6289C135.333 27.4336 134.829 27.2031 134.196 26.9375C133.415 26.5938 132.751 26.1328 132.204 25.5547C131.657 24.9766 131.384 24.2695 131.384 23.4336C131.384 22.8398 131.563 22.2695 131.923 21.7227C132.29 21.1758 132.841 20.7305 133.575 20.3867C134.309 20.0352 135.196 19.8594 136.235 19.8594C136.485 19.8594 136.802 19.8789 137.184 19.918C137.575 19.9492 138.063 20.0391 138.649 20.1875C139.243 20.3359 139.805 20.5469 140.337 20.8203V23.7383C140.087 23.5898 139.876 23.4648 139.704 23.3633C139.54 23.2617 139.317 23.1484 139.036 23.0234C138.755 22.8984 138.423 22.7891 138.04 22.6953C137.665 22.5938 137.278 22.543 136.88 22.543C136.395 22.543 136.063 22.6367 135.884 22.8242C135.704 23.0117 135.614 23.1992 135.614 23.3867C135.614 23.582 135.708 23.7656 135.895 23.9375C136.083 24.1016 136.501 24.3086 137.149 24.5586C138.087 24.918 138.837 25.2891 139.399 25.6719C139.962 26.0469 140.36 26.4609 140.595 26.9141C140.837 27.3672 140.958 27.9023 140.958 28.5195Z" fill="black"/>
<path d="M202.081 34.6476C200.186 35.2364 199.282 35.6726 197.926 35.7817C197.754 35.8035 197.56 35.7817 197.431 35.6726C197.301 35.5636 197.237 35.3891 197.237 35.2146C197.237 34.7785 197.258 34.5386 197.323 33.7971C197.344 33.4263 197.366 33.4263 197.409 32.9029C197.431 32.5758 197.538 31.5071 197.689 30.9619C198.098 31.2018 198.356 31.5071 198.701 31.7907C199.088 32.1178 199.454 32.4231 199.842 32.7502C200.229 33.0774 200.595 33.3827 200.983 33.7098C201.177 33.8625 201.37 34.037 201.564 34.1896C201.586 34.2332 202.038 34.6694 202.081 34.6476Z" fill="black" stroke="black" stroke-width="2" stroke-miterlimit="10" stroke-linecap="round" stroke-linejoin="round"/>
<path d="M198.572 25.5972C198.55 25.6408 198.55 25.6844 198.529 25.728C198.163 27.4291 198.012 29.2611 197.646 30.9622" stroke="black" stroke-width="2" stroke-miterlimit="10" stroke-linecap="round" stroke-linejoin="round"/>
<path d="M225.699 9.50219C225.785 9.56762 225.806 9.67666 225.763 9.78571C225.505 10.3964 225.053 10.8107 224.687 11.2469C219.52 17.6369 214.31 23.9833 209.121 30.3515C208.733 30.8094 208.346 31.2892 207.915 31.6818C207.765 31.8127 207.506 31.7254 207.506 31.5073C207.485 31.1366 207.42 30.7876 207.334 30.6132C206.947 29.8717 206.387 29.4355 205.526 29.4791C204.987 29.5227 204.923 29.3919 204.794 28.8466C204.621 27.4509 203.566 26.5349 202.059 27.0583C201.909 27.1237 201.736 27.0147 201.715 26.8402C201.693 26.644 201.693 26.4259 201.65 26.2078C201.564 25.5753 201.155 25.0519 200.509 24.7684C199.777 24.4194 198.808 24.812 198.572 25.5971C199.067 23.9615 201.263 21.8024 201.564 21.4098C205.073 16.939 207.549 14.1475 211.102 9.69847C212.846 7.47397 214.633 5.27127 216.419 3.06858C217.281 1.99995 217.302 1.99995 218.228 2.80687C219.778 4.15902 221.328 5.53298 222.878 6.90694C223.847 7.75748 224.773 8.65165 225.699 9.50219Z" fill="#  rgb(232, 240, 254)" stroke="black" stroke-width="2" stroke-miterlimit="10" stroke-linecap="round" stroke-linejoin="round"/>
<path d="M202.081 34.6476C203.674 33.8843 205.289 33.2083 206.86 32.4231C207.076 32.3141 207.7 31.8343 207.894 31.6816" stroke="black" stroke-width="2" stroke-miterlimit="10" stroke-linecap="round" stroke-linejoin="round"/>
</svg>
