<svg width="356" height="435" viewBox="0 0 356 435" fill="none" xmlns="http://www.w3.org/2000/svg">
<path d="M1.57904 1.187L35.7253 1.1887L35.7253 12.7026C30.7678 14.147 27.1646 18.3496 27.1646 23.3185C27.1646 29.4695 32.6783 34.4824 39.4979 34.4828C46.2932 34.4831 51.8311 29.4926 51.8311 23.3198C51.8311 18.3508 48.2521 14.1479 43.2704 12.7029L43.2704 1.18907L81.8421 1.19099V12.7048C76.8846 14.1493 73.3056 18.3519 73.3056 23.3208C73.3056 29.4718 78.8193 34.4847 85.6147 34.4851C92.4101 34.4854 97.948 29.4949 97.948 23.322C97.948 18.3531 94.3447 14.1502 89.3872 12.7052V1.19136L127.959 1.19328V12.7071C123.001 14.1516 119.398 18.3542 119.398 23.3231C119.398 29.474 124.912 34.487 131.731 34.4874C138.527 34.4877 144.041 29.4972 144.041 23.3243C144.041 18.3554 140.462 14.1525 135.48 12.7075V1.19365L174.052 1.19557V12.7094C169.094 14.1539 165.491 18.3565 165.491 23.3254C165.491 29.4763 171.005 34.4893 177.824 34.4896C184.644 34.49 190.157 29.4995 190.157 23.3266C190.157 18.3577 186.554 14.1548 181.597 12.7098V1.19594L220.168 1.19786V12.7117C215.211 14.1562 211.608 18.3588 211.608 23.3277C211.608 29.4786 217.121 34.4916 223.917 34.4919C230.712 34.4923 236.25 29.5017 236.25 23.3289C236.25 18.36 232.671 14.157 227.689 12.7121V1.19823L266.261 1.20015V12.714C261.304 14.1585 257.7 18.3611 257.7 23.33C257.7 29.4809 263.214 34.4939 270.034 34.4942C276.829 34.4946 282.343 29.504 282.343 23.3312C282.343 18.3623 278.764 14.1593 273.806 12.7144V1.20052L312.378 1.20244V12.7163C307.42 14.1608 303.817 18.3634 303.817 23.3323C303.817 29.4832 309.331 34.4962 316.15 34.4965C322.946 34.4968 328.484 29.5063 328.484 23.3335C328.484 18.3646 324.88 14.1616 319.923 12.7167V1.20281L354.069 1.20451L354.069 433.39L1.57904 433.373L1.57904 1.187Z" fill="white" stroke="black" stroke-width="2"/>
</svg>
