<svg xmlns="http://www.w3.org/2000/svg" viewBox="0 0 595 595"><defs><style>.cls-1{fill:#231815;}.cls-2{fill:#f4ae45;}</style></defs><title>logo-25</title><g id="線"><path class="cls-1" d="M107.63,529.58a11.33,11.33,0,0,1-2,6.68,12.43,12.43,0,0,1-5.51,4.32,20.58,20.58,0,0,1-8.11,1.5c-.85,0-1.9-.05-3.13-.16A34.62,34.62,0,0,1,84,541a38.34,38.34,0,0,1-6.41-2.19V528.71a44.79,44.79,0,0,0,6.14,3.21,16.4,16.4,0,0,0,6.46,1.28q3.18,0,4.11-1.05a3.1,3.1,0,0,0,.94-2,3.38,3.38,0,0,0-1.6-2.81A22.93,22.93,0,0,0,88.94,525,37.32,37.32,0,0,1,83,521.9a14.1,14.1,0,0,1-4.18-4.21,10.88,10.88,0,0,1-1.61-6,10.91,10.91,0,0,1,6.62-10.31,18.91,18.91,0,0,1,8.2-1.6,28.91,28.91,0,0,1,6.37.66,28.22,28.22,0,0,1,4.83,1.5,26.35,26.35,0,0,1,3.15,1.63l-.53,9.34a34.37,34.37,0,0,0-5.63-3.24,15.75,15.75,0,0,0-6.64-1.43,5.14,5.14,0,0,0-3.36.89,2.81,2.81,0,0,0-1,2.2,2.71,2.71,0,0,0,1,2.11,17.84,17.84,0,0,0,3.71,2.17,74.66,74.66,0,0,1,7.61,4,15,15,0,0,1,4.47,4.12A9.93,9.93,0,0,1,107.63,529.58Z"/><path class="cls-1" d="M155.9,510.38H141.66v31.17H129.27V510.38H115v-10H155.9Z"/><path class="cls-1" d="M207.74,520.93a21.73,21.73,0,0,1-2.66,10.61,19.15,19.15,0,0,1-7.92,7.69,26.52,26.52,0,0,1-12.8,2.85,26.08,26.08,0,0,1-12.93-3,19.38,19.38,0,0,1-7.86-7.81,22.34,22.34,0,0,1,0-20.75,19.09,19.09,0,0,1,7.86-7.79,26.23,26.23,0,0,1,12.94-2.95,28.63,28.63,0,0,1,10.18,1.69,20.38,20.38,0,0,1,7.35,4.59,19.34,19.34,0,0,1,4.36,6.74A22.13,22.13,0,0,1,207.74,520.93Zm-12.66,0a12.35,12.35,0,0,0-.68-4.23,9.07,9.07,0,0,0-2.06-3.33,9.61,9.61,0,0,0-3.38-2.2,12.31,12.31,0,0,0-4.6-.79,10.58,10.58,0,1,0,0,21.13,11.6,11.6,0,0,0,5.82-1.36,9,9,0,0,0,3.66-3.74A11.68,11.68,0,0,0,195.08,520.93Z"/><path class="cls-1" d="M254.77,538.46a30.11,30.11,0,0,1-5.23,2.14,33.81,33.81,0,0,1-5.39,1.14,44.81,44.81,0,0,1-5.63.34,29.17,29.17,0,0,1-9.64-1.48,20.83,20.83,0,0,1-7.4-4.38,18.48,18.48,0,0,1-4.69-6.78,22.38,22.38,0,0,1-1.56-8.51,22,22,0,0,1,1.84-9.31,17.92,17.92,0,0,1,5.15-6.64,22,22,0,0,1,7.55-3.91,31.14,31.14,0,0,1,8.93-1.26,48.58,48.58,0,0,1,15.89,3.11v10.94a44,44,0,0,0-6.05-3.17,18,18,0,0,0-7-1.26,16,16,0,0,0-6.72,1.43,12.5,12.5,0,0,0-5,4.07,10.28,10.28,0,0,0-1.9,6.18,10.49,10.49,0,0,0,1.66,5.72,11.81,11.81,0,0,0,4.62,4.13,14.34,14.34,0,0,0,6.67,1.53,21.71,21.71,0,0,0,5.68-.73,26.76,26.76,0,0,0,4.5-1.62,39.31,39.31,0,0,0,3.76-2.11Z"/><path class="cls-1" d="M308.51,541.55H293.35l-15.74-19.28v19.28H265.19V500.37h12.42v18.42l14.91-18.42H306l-15.33,19.28Z"/><path class="cls-1" d="M355.73,541.55H342.39l-3.24-7.31a30.25,30.25,0,0,0-3.2-5.87,7,7,0,0,0-2.78-2.38,10,10,0,0,0-3.49-.52h-1.4v16.08H315.86V500.37H337a15.33,15.33,0,0,1,8.38,2.08,12.5,12.5,0,0,1,4.71,5.05,13,13,0,0,1,1.44,5.65,10.69,10.69,0,0,1-1.2,5.27,9.55,9.55,0,0,1-2.54,3.13,24.92,24.92,0,0,1-3,1.88,11.85,11.85,0,0,1,3.28,2.74,34.42,34.42,0,0,1,3.52,6.44Zm-16.87-28.17a4.27,4.27,0,0,0-1.88-4q-1.86-1.12-6.09-1.13h-2.61v9.93H331c3,0,5.11-.34,6.23-1S338.86,515.26,338.86,513.38Z"/><path class="cls-1" d="M405.5,520.93a21.73,21.73,0,0,1-2.66,10.61,19.15,19.15,0,0,1-7.92,7.69,26.54,26.54,0,0,1-12.81,2.85,26,26,0,0,1-12.92-3,19.38,19.38,0,0,1-7.86-7.81,22.27,22.27,0,0,1,0-20.75,19.09,19.09,0,0,1,7.86-7.79,26.19,26.19,0,0,1,12.93-2.95,28.56,28.56,0,0,1,10.18,1.69,20.38,20.38,0,0,1,7.35,4.59,19.22,19.22,0,0,1,4.37,6.74A22.34,22.34,0,0,1,405.5,520.93Zm-12.66,0a12.59,12.59,0,0,0-.68-4.23,9.09,9.09,0,0,0-2.07-3.33,9.48,9.48,0,0,0-3.37-2.2,12.37,12.37,0,0,0-4.61-.79,10.58,10.58,0,1,0,0,21.13,11.66,11.66,0,0,0,5.83-1.36,9,9,0,0,0,3.65-3.74A11.68,11.68,0,0,0,392.84,520.93Z"/><path class="cls-1" d="M459.27,520.93a21.62,21.62,0,0,1-2.66,10.61,19.18,19.18,0,0,1-7.91,7.69,26.59,26.59,0,0,1-12.81,2.85,26,26,0,0,1-12.92-3,19.26,19.26,0,0,1-7.86-7.81,22.3,22.3,0,0,1,0-20.75,19.21,19.21,0,0,1,7.86-7.79,26.25,26.25,0,0,1,12.94-2.95,28.56,28.56,0,0,1,10.18,1.69,20.38,20.38,0,0,1,7.35,4.59,19.36,19.36,0,0,1,4.37,6.74A22.33,22.33,0,0,1,459.27,520.93Zm-12.65,0a12.35,12.35,0,0,0-.69-4.23,8.94,8.94,0,0,0-2.06-3.33,9.57,9.57,0,0,0-3.37-2.2,12.41,12.41,0,0,0-4.61-.79,10.58,10.58,0,1,0,0,21.13,11.66,11.66,0,0,0,5.83-1.36,9,9,0,0,0,3.65-3.74A11.68,11.68,0,0,0,446.62,520.93Z"/><path class="cls-1" d="M516,541.55H503.59V517.69l-11.2,13.82h-1l-11.23-13.82v23.86H468.12V500.37h11.26L492,515.82l12.72-15.45H516Z"/><rect class="cls-1" x="267.45" y="90.59" width="21.83" height="39.71" rx="5.81"/><rect class="cls-1" x="311.01" y="91.16" width="21.83" height="38.56" rx="5.73"/><path class="cls-1" d="M359.71,91.16H362a13.78,13.78,0,0,1,13.78,13.78v11A13.78,13.78,0,0,1,362,129.73h-2.67a4.32,4.32,0,0,1-4.32-4.32V95.87A4.7,4.7,0,0,1,359.71,91.16Z"/><rect class="cls-1" x="421.95" y="81.41" width="17.77" height="58.08" rx="6.75" transform="translate(541.28 -320.39) rotate(90)"/><rect class="cls-1" x="401.8" y="101.56" width="58.08" height="17.77" rx="4.54"/><path class="cls-2" d="M172,64.46c-24.44-4-50.12,15-50.12,46s25.68,50,50.12,46c9.18-1.23,17.7-5.43,24.77-10.73h0c13.27-10,18.73-20.13,32.43-20.28h0c3.36.08,4.68.21,7.21.42a2.06,2.06,0,0,0,2.22-2V97.09a2.06,2.06,0,0,0-2.22-2c-2.53.2-3.85.34-7.21.42h0c-13.71-.15-19.16-10.3-32.43-20.28h0C189.68,69.88,181.16,65.68,172,64.46Z"/><rect class="cls-1" x="267.45" y="219.14" width="21.83" height="39.71" rx="5.81"/><rect class="cls-1" x="311.01" y="219.71" width="21.83" height="38.56" rx="5.73"/><path class="cls-1" d="M359.71,219.71H362a13.78,13.78,0,0,1,13.78,13.78v11A13.78,13.78,0,0,1,362,258.28h-2.67A4.32,4.32,0,0,1,355,254V224.42A4.7,4.7,0,0,1,359.71,219.71Z"/><rect class="cls-1" x="421.95" y="209.96" width="17.77" height="58.08" rx="6.75" transform="translate(669.83 -191.84) rotate(90)"/><rect class="cls-1" x="401.8" y="230.11" width="58.08" height="17.77" rx="4.54"/><path class="cls-2" d="M172,193c-24.44-4-50.12,15-50.12,46s25.68,50,50.12,46c9.18-1.22,17.7-5.42,24.77-10.73h0c13.27-10,18.73-20.13,32.43-20.28h0c3.36.08,4.68.22,7.21.42a2.06,2.06,0,0,0,2.22-2v-26.7a2.06,2.06,0,0,0-2.22-2.05c-2.53.21-3.85.34-7.21.42h0c-13.71-.15-19.16-10.3-32.43-20.28h0C189.68,198.43,181.16,194.23,172,193Z"/><rect class="cls-1" x="267.45" y="347.69" width="21.83" height="39.71" rx="5.81"/><rect class="cls-1" x="311.01" y="348.27" width="21.83" height="38.56" rx="5.73"/><path class="cls-1" d="M359.71,348.27H362A13.78,13.78,0,0,1,375.77,362v11A13.78,13.78,0,0,1,362,386.83h-2.67a4.32,4.32,0,0,1-4.32-4.32V353A4.7,4.7,0,0,1,359.71,348.27Z"/><rect class="cls-1" x="421.95" y="338.51" width="17.77" height="58.08" rx="6.75" transform="translate(798.38 -63.29) rotate(90)"/><rect class="cls-1" x="401.8" y="358.66" width="58.08" height="17.77" rx="4.54"/><path class="cls-2" d="M172,321.57c-24.44-4-50.12,15-50.12,46s25.68,50,50.12,46c9.18-1.22,17.7-5.42,24.77-10.73h0c13.27-10,18.73-20.13,32.43-20.27h0c3.36.07,4.68.21,7.21.41a2.06,2.06,0,0,0,2.22-2V354.2a2.06,2.06,0,0,0-2.22-2.05c-2.53.21-3.85.34-7.21.42h0c-13.71-.15-19.16-10.3-32.43-20.27h0C189.68,327,181.16,322.79,172,321.57Z"/><rect class="cls-1" x="279.29" y="227.79" width="361.17" height="22.96" rx="5.87" transform="translate(699.14 -220.6) rotate(90)"/><path class="cls-1" d="M108.62,530.81a11.33,11.33,0,0,1-2,6.68,12.44,12.44,0,0,1-5.51,4.33,20.62,20.62,0,0,1-8.11,1.5c-.85,0-1.9-.06-3.14-.17a34.85,34.85,0,0,1-4.93-.9,39.25,39.25,0,0,1-6.4-2.2V530a44.7,44.7,0,0,0,6.13,3.21,16.48,16.48,0,0,0,6.47,1.27q3.18,0,4.11-1a3.06,3.06,0,0,0,.94-2,3.37,3.37,0,0,0-1.61-2.8,22.76,22.76,0,0,0-4.66-2.37,37.06,37.06,0,0,1-6-3.1,14.15,14.15,0,0,1-4.17-4.2,10.86,10.86,0,0,1-1.62-6,11,11,0,0,1,6.63-10.31A19,19,0,0,1,93,501a28.3,28.3,0,0,1,6.37.67,26.8,26.8,0,0,1,4.83,1.5,27.48,27.48,0,0,1,3.15,1.62l-.54,9.34a33.56,33.56,0,0,0-5.63-3.24,15.71,15.71,0,0,0-6.64-1.42,5.12,5.12,0,0,0-3.36.89,2.78,2.78,0,0,0-1,2.2,2.71,2.71,0,0,0,1,2.11,19.26,19.26,0,0,0,3.72,2.17,73.73,73.73,0,0,1,7.61,4A15,15,0,0,1,107,525,10,10,0,0,1,108.62,530.81Z"/><path class="cls-1" d="M156.89,511.62H142.65v31.16H130.26V511.62H116v-10h40.88Z"/><path class="cls-1" d="M208.73,522.16a21.7,21.7,0,0,1-2.66,10.61,19.29,19.29,0,0,1-7.92,7.7,26.55,26.55,0,0,1-12.8,2.85,26.05,26.05,0,0,1-12.93-3,19.34,19.34,0,0,1-7.86-7.82,22.27,22.27,0,0,1,0-20.75,19.07,19.07,0,0,1,7.86-7.78,26.09,26.09,0,0,1,12.94-3,28.54,28.54,0,0,1,10.17,1.69,20.38,20.38,0,0,1,7.35,4.59,19.31,19.31,0,0,1,4.37,6.75A22.25,22.25,0,0,1,208.73,522.16Zm-12.66,0a12.68,12.68,0,0,0-.68-4.23,9.09,9.09,0,0,0-2.07-3.33,9.62,9.62,0,0,0-3.37-2.2,12.56,12.56,0,0,0-4.6-.78,10.57,10.57,0,1,0,0,21.12,11.76,11.76,0,0,0,5.82-1.35,9,9,0,0,0,3.65-3.74A11.75,11.75,0,0,0,196.07,522.16Z"/><path class="cls-1" d="M255.76,539.69a28.92,28.92,0,0,1-5.23,2.14,32.78,32.78,0,0,1-5.39,1.15,46.82,46.82,0,0,1-5.64.34,29.25,29.25,0,0,1-9.64-1.49,20.87,20.87,0,0,1-7.39-4.38,18.47,18.47,0,0,1-4.7-6.77,22.66,22.66,0,0,1-1.56-8.52,22,22,0,0,1,1.84-9.31,18,18,0,0,1,5.16-6.64,22.07,22.07,0,0,1,7.55-3.91,31.07,31.07,0,0,1,8.92-1.26,48.67,48.67,0,0,1,15.9,3.12v10.93a44.52,44.52,0,0,0-6.05-3.16,18,18,0,0,0-7-1.26,16,16,0,0,0-6.71,1.42,12.43,12.43,0,0,0-5,4.07,10.85,10.85,0,0,0-.24,11.9,11.74,11.74,0,0,0,4.62,4.13,14.31,14.31,0,0,0,6.67,1.53,21.41,21.41,0,0,0,5.68-.73,25.11,25.11,0,0,0,4.5-1.62,37.25,37.25,0,0,0,3.76-2.11Z"/><path class="cls-1" d="M309.49,542.78H294.34L278.59,523.5v19.28H266.18V501.6h12.41V520l14.92-18.43H307l-15.33,19.29Z"/><path class="cls-1" d="M356.72,542.78H343.38l-3.24-7.31a30.27,30.27,0,0,0-3.21-5.86,7,7,0,0,0-2.78-2.38,9.76,9.76,0,0,0-3.49-.52h-1.39v16.07H316.85V501.6H338a15.42,15.42,0,0,1,8.38,2.08,12.5,12.5,0,0,1,4.71,5.05,13,13,0,0,1,1.44,5.65,10.67,10.67,0,0,1-1.2,5.27,9.84,9.84,0,0,1-2.54,3.14,25.72,25.72,0,0,1-3,1.87,11.88,11.88,0,0,1,3.28,2.75,34.84,34.84,0,0,1,3.52,6.43Zm-16.88-28.16a4.26,4.26,0,0,0-1.87-4c-1.25-.76-3.28-1.13-6.09-1.13h-2.61v9.92h2.67c3,0,5.11-.33,6.22-1S339.84,516.5,339.84,514.62Z"/><path class="cls-1" d="M406.49,522.16a21.7,21.7,0,0,1-2.66,10.61,19.35,19.35,0,0,1-7.92,7.7,26.59,26.59,0,0,1-12.81,2.85,26,26,0,0,1-12.92-3,19.28,19.28,0,0,1-7.86-7.82,22.27,22.27,0,0,1,0-20.75,19.11,19.11,0,0,1,7.85-7.78,26.14,26.14,0,0,1,12.94-3,28.6,28.6,0,0,1,10.18,1.69,20.38,20.38,0,0,1,7.35,4.59,19.31,19.31,0,0,1,4.37,6.75A22.25,22.25,0,0,1,406.49,522.16Zm-12.66,0a12.68,12.68,0,0,0-.68-4.23,9.09,9.09,0,0,0-2.07-3.33,9.71,9.71,0,0,0-3.37-2.2,12.58,12.58,0,0,0-4.61-.78,10.57,10.57,0,1,0,0,21.12,11.77,11.77,0,0,0,5.83-1.35,9,9,0,0,0,3.65-3.74A11.75,11.75,0,0,0,393.83,522.16Z"/><path class="cls-1" d="M460.26,522.16a21.7,21.7,0,0,1-2.66,10.61,19.23,19.23,0,0,1-7.92,7.7,26.52,26.52,0,0,1-12.8,2.85,26.08,26.08,0,0,1-12.93-3,19.31,19.31,0,0,1-7.85-7.82,22.3,22.3,0,0,1,0-20.75,19.13,19.13,0,0,1,7.86-7.78,26.12,26.12,0,0,1,12.94-3,28.63,28.63,0,0,1,10.18,1.69,20.38,20.38,0,0,1,7.35,4.59,19.45,19.45,0,0,1,4.37,6.75A22.24,22.24,0,0,1,460.26,522.16Zm-12.66,0a12.43,12.43,0,0,0-.68-4.23,9.07,9.07,0,0,0-2.06-3.33,9.66,9.66,0,0,0-3.38-2.2,12.52,12.52,0,0,0-4.6-.78,10.57,10.57,0,1,0,0,21.12,11.7,11.7,0,0,0,5.82-1.35,9,9,0,0,0,3.66-3.74A11.75,11.75,0,0,0,447.6,522.16Z"/><path class="cls-1" d="M517,542.78H504.58V518.93l-11.21,13.81h-1l-11.23-13.81v23.85H469.1V501.6h11.26L493,517.05l12.72-15.45H517Z"/><rect class="cls-1" x="268.43" y="91.82" width="21.83" height="39.71" rx="5.81"/><rect class="cls-1" x="312" y="92.4" width="21.83" height="38.56" rx="5.73"/><path class="cls-1" d="M360.7,92.4H363a13.78,13.78,0,0,1,13.78,13.78v11A13.78,13.78,0,0,1,363,131h-2.67a4.32,4.32,0,0,1-4.32-4.32V97.1A4.7,4.7,0,0,1,360.7,92.4Z"/><rect class="cls-1" x="422.94" y="82.64" width="17.77" height="58.08" rx="6.75" transform="translate(543.5 -320.14) rotate(90)"/><rect class="cls-1" x="402.78" y="102.79" width="58.08" height="17.77" rx="4.54"/><path class="cls-2" d="M173,65.7c-24.45-4-50.12,15-50.12,46s25.67,50,50.12,46c9.18-1.22,17.7-5.42,24.77-10.73h0c13.26-10,18.72-20.13,32.43-20.27h0c3.35.08,4.67.21,7.2.41a2,2,0,0,0,2.22-2V98.33a2.06,2.06,0,0,0-2.22-2c-2.53.21-3.85.34-7.2.42h0c-13.71-.15-19.17-10.3-32.43-20.27h0C190.67,71.12,182.15,66.92,173,65.7Z"/><rect class="cls-1" x="268.43" y="220.37" width="21.83" height="39.71" rx="5.81"/><rect class="cls-1" x="312" y="220.95" width="21.83" height="38.56" rx="5.73"/><path class="cls-1" d="M360.7,220.95H363a13.78,13.78,0,0,1,13.78,13.78v11A13.78,13.78,0,0,1,363,259.51h-2.67a4.32,4.32,0,0,1-4.32-4.32V225.65A4.7,4.7,0,0,1,360.7,220.95Z"/><rect class="cls-1" x="422.94" y="211.19" width="17.77" height="58.08" rx="6.75" transform="translate(672.05 -191.59) rotate(90)"/><rect class="cls-1" x="402.78" y="231.35" width="58.08" height="17.77" rx="4.54"/><path class="cls-2" d="M173,194.25c-24.45-4-50.12,15-50.12,46s25.67,50,50.12,46c9.18-1.22,17.7-5.42,24.77-10.73h0c13.26-10,18.72-20.12,32.43-20.27h0c3.35.08,4.67.21,7.2.41a2,2,0,0,0,2.22-2v-26.7a2,2,0,0,0-2.22-2c-2.53.2-3.85.33-7.2.41h0C216.46,225.1,211,215,197.74,205h0C190.67,199.67,182.15,195.47,173,194.25Z"/><rect class="cls-1" x="268.43" y="348.93" width="21.83" height="39.71" rx="5.81"/><rect class="cls-1" x="312" y="349.5" width="21.83" height="38.56" rx="5.73"/><path class="cls-1" d="M360.7,349.5H363a13.78,13.78,0,0,1,13.78,13.78v11A13.78,13.78,0,0,1,363,388.06h-2.67a4.32,4.32,0,0,1-4.32-4.32V354.21a4.7,4.7,0,0,1,4.7-4.7Z"/><rect class="cls-1" x="422.94" y="339.74" width="17.77" height="58.08" rx="6.75" transform="translate(800.6 -63.04) rotate(90)"/><rect class="cls-1" x="402.78" y="359.9" width="58.08" height="17.77" rx="4.54"/><path class="cls-2" d="M173,322.8c-24.45-4-50.12,15-50.12,46s25.67,50,50.12,46c9.18-1.23,17.7-5.43,24.77-10.74h0c13.26-10,18.72-20.12,32.43-20.27h0c3.35.08,4.67.21,7.2.42a2.06,2.06,0,0,0,2.22-2.05v-26.7a2.05,2.05,0,0,0-2.22-2c-2.53.2-3.85.34-7.2.41h0c-13.71-.14-19.17-10.29-32.43-20.27h0C190.67,328.22,182.15,324,173,322.8Z"/><rect class="cls-1" x="280.27" y="229.02" width="361.17" height="22.96" rx="5.87" transform="translate(701.36 -220.36) rotate(90)"/></g></svg>