<svg width="71" height="74" viewBox="0 0 71 74" fill="none" xmlns="http://www.w3.org/2000/svg">
<path d="M32.7404 14.5185H30.6672C30.0177 14.5185 29.4932 13.9929 29.4932 13.342V7.63475C29.4932 6.98392 30.0177 6.45825 30.6672 6.45825H32.7404C33.3899 6.45825 33.9144 6.98392 33.9144 7.63475V13.317C33.9144 13.9929 33.3899 14.5185 32.7404 14.5185Z" fill="black"/>
<path d="M41.5578 14.3933H39.4596C38.8101 14.3933 38.3105 13.8677 38.3105 13.2419V7.73484C38.3105 7.08401 38.8351 6.58337 39.4596 6.58337H41.5578C42.2073 6.58337 42.7068 7.10904 42.7068 7.73484V13.2419C42.7318 13.8927 42.2073 14.3933 41.5578 14.3933Z" fill="black"/>
<path d="M48.6269 14.3933H48.0774C47.6028 14.3933 47.2031 13.9928 47.2031 13.5172V7.53459C47.2031 7.00892 47.6278 6.58337 48.1523 6.58337H48.602C50.1507 6.58337 51.3996 7.83497 51.3996 9.38695V11.6148C51.4246 13.1417 50.1756 14.3933 48.6269 14.3933Z" fill="black"/>
<path d="M58.0443 12.2908C57.2949 12.2908 56.6704 11.665 56.6704 10.914V10.0379C56.6704 9.28693 57.2949 8.66113 58.0443 8.66113H67.0616C67.811 8.66113 68.4355 9.28693 68.4355 10.0379V10.914C68.4355 11.665 67.811 12.2908 67.0616 12.2908H58.0443Z" fill="black"/>
<path d="M67.5113 8.68616H57.5946C57.0951 8.68616 56.6704 9.08667 56.6704 9.61234V11.3646C56.6704 11.8652 57.0701 12.2908 57.5946 12.2908H67.5113C68.0108 12.2908 68.4355 11.8902 68.4355 11.3646V9.61234C68.4355 9.1117 68.0108 8.68616 67.5113 8.68616Z" fill="black"/>
<path d="M10.1844 1.17654C5.23859 0.375515 0.0429688 4.2054 0.0429688 10.4884C0.0429688 16.7714 5.23859 20.6263 10.1844 19.8003C12.0329 19.55 13.7564 18.6989 15.2052 17.6225C17.8779 15.5949 19.002 13.5423 21.7747 13.5173C22.4491 13.5423 22.7239 13.5673 23.2234 13.5924C23.4732 13.6174 23.6731 13.4171 23.6731 13.1668V7.78496C23.6731 7.53465 23.4732 7.35942 23.2234 7.35942C22.6989 7.40949 22.4491 7.43452 21.7747 7.43452C19.002 7.40949 17.9029 5.35687 15.2052 3.32928C13.7564 2.27794 12.0329 1.42686 10.1844 1.17654Z" fill="#F4AE45"/>
<path d="M32.7404 40.5768H30.6672C30.0177 40.5768 29.4932 40.0511 29.4932 39.4002V33.718C29.4932 33.0672 30.0177 32.5415 30.6672 32.5415H32.7404C33.3899 32.5415 33.9144 33.0672 33.9144 33.718V39.4002C33.9144 40.0511 33.3899 40.5768 32.7404 40.5768Z" fill="black"/>
<path d="M41.5578 40.4767H39.4596C38.8101 40.4767 38.3105 39.951 38.3105 39.3252V33.8182C38.3105 33.1674 38.8351 32.6667 39.4596 32.6667H41.5578C42.2073 32.6667 42.7068 33.1924 42.7068 33.8182V39.3252C42.7318 39.951 42.2073 40.4767 41.5578 40.4767Z" fill="black"/>
<path d="M48.6269 40.4767H48.0774C47.6028 40.4767 47.2031 40.0762 47.2031 39.6006V33.618C47.2031 33.0923 47.6278 32.6667 48.1523 32.6667H48.602C50.1507 32.6667 51.3996 33.9183 51.3996 35.4703V37.6982C51.4246 39.2251 50.1756 40.4767 48.6269 40.4767Z" fill="black"/>
<path d="M58.0443 38.349C57.2949 38.349 56.6704 37.7232 56.6704 36.9722V36.0961C56.6704 35.3452 57.2949 34.7194 58.0443 34.7194H67.0616C67.811 34.7194 68.4355 35.3452 68.4355 36.0961V36.9722C68.4355 37.7232 67.811 38.349 67.0616 38.349H58.0443Z" fill="black"/>
<path d="M67.5113 34.7444H57.5946C57.0951 34.7444 56.6704 35.1449 56.6704 35.6706V37.4228C56.6704 37.9234 57.0701 38.349 57.5946 38.349H67.5113C68.0108 38.349 68.4355 37.9485 68.4355 37.4228V35.6706C68.4355 35.1699 68.0108 34.7444 67.5113 34.7444Z" fill="black"/>
<path d="M10.1844 27.2348C5.23859 26.4337 0.0429688 30.2636 0.0429688 36.5466C0.0429688 42.8297 5.23859 46.6846 10.1844 45.8585C12.0329 45.6082 13.7564 44.7571 15.2052 43.6807C17.8779 41.6532 19.002 39.6005 21.7747 39.5755C22.4491 39.6005 22.7239 39.6256 23.2234 39.6506C23.4732 39.6756 23.6731 39.4754 23.6731 39.2251V33.8182C23.6731 33.5678 23.4732 33.3926 23.2234 33.3926C22.6989 33.4427 22.4491 33.4677 21.7747 33.4677C19.002 33.4427 17.9029 31.3901 15.2052 29.3625C13.7564 28.3362 12.0329 27.4851 10.1844 27.2348Z" fill="#F4AE45"/>
<path d="M32.7404 66.635H30.6672C30.0177 66.635 29.4932 66.1093 29.4932 65.4585V59.7762C29.4932 59.1254 30.0177 58.5997 30.6672 58.5997H32.7404C33.3899 58.5997 33.9144 59.1254 33.9144 59.7762V65.4585C33.9144 66.1093 33.3899 66.635 32.7404 66.635Z" fill="black"/>
<path d="M41.5578 66.5349H39.4596C38.8101 66.5349 38.3105 66.0093 38.3105 65.3835V59.8764C38.3105 59.2256 38.8351 58.725 39.4596 58.725H41.5578C42.2073 58.725 42.7068 59.2506 42.7068 59.8764V65.3835C42.7318 66.0093 42.2073 66.5349 41.5578 66.5349Z" fill="black"/>
<path d="M48.6269 66.5349H48.0774C47.6028 66.5349 47.2031 66.1344 47.2031 65.6588V59.6762C47.2031 59.1505 47.6278 58.725 48.1523 58.725H48.602C50.1507 58.725 51.3996 59.9766 51.3996 61.5285V63.7564C51.4246 65.2833 50.1756 66.5349 48.6269 66.5349Z" fill="black"/>
<path d="M58.0443 64.4322C57.2949 64.4322 56.6704 63.8064 56.6704 63.0555V62.1794C56.6704 61.4284 57.2949 60.8026 58.0443 60.8026H67.0616C67.811 60.8026 68.4355 61.4284 68.4355 62.1794V63.0555C68.4355 63.8064 67.811 64.4322 67.0616 64.4322H58.0443Z" fill="black"/>
<path d="M67.5113 60.8275H57.5946C57.0951 60.8275 56.6704 61.228 56.6704 61.7537V63.5059C56.6704 64.0066 57.0701 64.4321 57.5946 64.4321H67.5113C68.0108 64.4321 68.4355 64.0316 68.4355 63.5059V61.7537C68.4355 61.228 68.0108 60.8275 67.5113 60.8275Z" fill="black"/>
<path d="M10.1844 53.293C5.23859 52.492 0.0429688 56.3219 0.0429688 62.6049C0.0429688 68.8879 5.23859 72.7428 10.1844 71.9167C12.0329 71.6664 13.7564 70.8153 15.2052 69.739C17.8779 67.7114 19.002 65.6588 21.7747 65.6337C22.4491 65.6588 22.7239 65.6838 23.2234 65.7088C23.4732 65.7339 23.6731 65.5336 23.6731 65.2833V59.8764C23.6731 59.6261 23.4732 59.4508 23.2234 59.4508C22.6989 59.5009 22.4491 59.5259 21.7747 59.5259C19.002 59.5009 17.9029 57.4483 15.2052 55.4207C13.7564 54.3944 12.0329 53.5433 10.1844 53.293Z" fill="#F4AE45"/>
<path d="M70.7585 72.0419V1.20153C70.7585 0.550702 70.2339 0 69.5595 0H67.2864C66.6369 0 66.0874 0.525671 66.0874 1.20153V72.0419C66.0874 72.6927 66.612 73.2434 67.2864 73.2434H69.5595C70.2089 73.2184 70.7585 72.6927 70.7585 72.0419Z" fill="black"/>
</svg>
