<svg xmlns="http://www.w3.org/2000/svg" viewBox="0 0 367.93 40.99"><defs><style>.cls-1{fill:#231815;}</style></defs><title>アートボード 46</title><g id="線"><path class="cls-1" d="M30.9,27.7a9.15,9.15,0,0,1-1.6,5.41,10,10,0,0,1-4.46,3.51,16.7,16.7,0,0,1-6.57,1.21c-.69,0-1.54,0-2.54-.13a27.81,27.81,0,0,1-4-.74,31,31,0,0,1-5.19-1.78V27a35.48,35.48,0,0,0,5,2.6,13.27,13.27,0,0,0,5.23,1c1.72,0,2.83-.29,3.34-.86a2.51,2.51,0,0,0,.75-1.6,2.71,2.71,0,0,0-1.29-2.27A18.63,18.63,0,0,0,15.77,24,29.65,29.65,0,0,1,11,21.48a11.45,11.45,0,0,1-3.38-3.41,8.77,8.77,0,0,1-1.31-4.83,8.86,8.86,0,0,1,5.37-8.35,15.24,15.24,0,0,1,6.64-1.3,23.73,23.73,0,0,1,9.07,1.75,20.52,20.52,0,0,1,2.55,1.32l-.43,7.56A28.17,28.17,0,0,0,24.9,11.6a12.74,12.74,0,0,0-5.38-1.15,4.16,4.16,0,0,0-2.72.72A2.25,2.25,0,0,0,16,13a2.19,2.19,0,0,0,.84,1.71,15,15,0,0,0,3,1.75A61.59,61.59,0,0,1,26,19.66,12.22,12.22,0,0,1,29.59,23,8,8,0,0,1,30.9,27.7Z"/><path class="cls-1" d="M70,12.15H58.47V37.4h-10V12.15H36.9V4.05H70Z"/><path class="cls-1" d="M112,20.7a17.53,17.53,0,0,1-2.16,8.59,15.54,15.54,0,0,1-6.41,6.23,21.5,21.5,0,0,1-10.37,2.31,21.05,21.05,0,0,1-10.47-2.41,15.61,15.61,0,0,1-6.36-6.32,17.65,17.65,0,0,1-2.08-8.4,17.68,17.68,0,0,1,2.06-8.41A15.55,15.55,0,0,1,82.57,6,21.31,21.31,0,0,1,93.05,3.59,23.22,23.22,0,0,1,101.29,5a16.37,16.37,0,0,1,6,3.72,15.62,15.62,0,0,1,3.53,5.46A17.89,17.89,0,0,1,112,20.7Zm-10.26,0a10.12,10.12,0,0,0-.55-3.43,7.31,7.31,0,0,0-1.67-2.7,7.93,7.93,0,0,0-2.73-1.78,10.23,10.23,0,0,0-3.73-.64,8.48,8.48,0,0,0-6.35,2.36,8.49,8.49,0,0,0-2.31,6.19,8.45,8.45,0,0,0,2.32,6.19,8.47,8.47,0,0,0,6.34,2.37,9.52,9.52,0,0,0,4.72-1.09,7.38,7.38,0,0,0,3-3A9.49,9.49,0,0,0,101.73,20.7Z"/><path class="cls-1" d="M150.08,34.89a23.8,23.8,0,0,1-4.24,1.74,26.65,26.65,0,0,1-4.36.92,35.61,35.61,0,0,1-4.57.28,23.66,23.66,0,0,1-7.8-1.2,17,17,0,0,1-6-3.55,15.12,15.12,0,0,1-3.8-5.49,18.32,18.32,0,0,1-1.26-6.89,18,18,0,0,1,1.49-7.55,14.6,14.6,0,0,1,4.18-5.37,17.7,17.7,0,0,1,6.11-3.17,25.17,25.17,0,0,1,7.23-1,39.47,39.47,0,0,1,12.87,2.52V15A34.86,34.86,0,0,0,145,12.41a14.61,14.61,0,0,0-5.7-1,12.88,12.88,0,0,0-5.43,1.16,10,10,0,0,0-4.07,3.3,8.29,8.29,0,0,0-1.54,5,8.38,8.38,0,0,0,1.35,4.63,9.51,9.51,0,0,0,3.74,3.35,11.52,11.52,0,0,0,5.4,1.24,17.62,17.62,0,0,0,4.6-.59A20.67,20.67,0,0,0,147,28.16a31.92,31.92,0,0,0,3.05-1.71Z"/><path class="cls-1" d="M193.6,37.4H181.33L168.57,21.78V37.4h-10V4.05h10V19L180.65,4.05h10.93L179.16,19.66Z"/><path class="cls-1" d="M231.85,37.4h-10.8l-2.63-5.92a24.22,24.22,0,0,0-2.6-4.75,5.5,5.5,0,0,0-2.25-1.93,8,8,0,0,0-2.82-.42h-1.13v13H199.56V4.05h17.11a12.43,12.43,0,0,1,6.78,1.68,10.11,10.11,0,0,1,3.82,4.09,10.48,10.48,0,0,1,1.16,4.57,8.61,8.61,0,0,1-1,4.27,7.8,7.8,0,0,1-2.06,2.54A19.87,19.87,0,0,1,223,22.72a9.6,9.6,0,0,1,2.66,2.22,27.91,27.91,0,0,1,2.85,5.21ZM218.18,14.59a3.46,3.46,0,0,0-1.51-3.23,10,10,0,0,0-4.94-.91h-2.11v8h2.16c2.46,0,4.14-.26,5-.8A3.29,3.29,0,0,0,218.18,14.59Z"/><path class="cls-1" d="M272.16,20.7A17.53,17.53,0,0,1,270,29.29a15.54,15.54,0,0,1-6.41,6.23,21.5,21.5,0,0,1-10.37,2.31,21.05,21.05,0,0,1-10.47-2.41,15.61,15.61,0,0,1-6.36-6.32,17.65,17.65,0,0,1-2.08-8.4,17.57,17.57,0,0,1,2.07-8.41A15.47,15.47,0,0,1,242.74,6a21.31,21.31,0,0,1,10.48-2.39A23.22,23.22,0,0,1,261.46,5a16.37,16.37,0,0,1,6,3.72A15.79,15.79,0,0,1,271,14.14,18.09,18.09,0,0,1,272.16,20.7Zm-10.25,0a10.11,10.11,0,0,0-.56-3.43,7.31,7.31,0,0,0-1.67-2.7A7.93,7.93,0,0,0,257,12.79a10.19,10.19,0,0,0-3.73-.64,8.48,8.48,0,0,0-6.35,2.36,8.49,8.49,0,0,0-2.31,6.19,8.45,8.45,0,0,0,2.32,6.19,8.47,8.47,0,0,0,6.34,2.37,9.52,9.52,0,0,0,4.72-1.09,7.3,7.3,0,0,0,2.95-3A9.38,9.38,0,0,0,261.91,20.7Z"/><path class="cls-1" d="M315.71,20.7a17.63,17.63,0,0,1-2.15,8.59,15.6,15.6,0,0,1-6.41,6.23,21.5,21.5,0,0,1-10.37,2.31,21,21,0,0,1-10.47-2.41,15.63,15.63,0,0,1-6.37-6.32,18.06,18.06,0,0,1,0-16.81A15.49,15.49,0,0,1,286.3,6a21.28,21.28,0,0,1,10.48-2.39A23.26,23.26,0,0,1,305,5a16.33,16.33,0,0,1,6,3.72,15.5,15.5,0,0,1,3.54,5.46A18.09,18.09,0,0,1,315.71,20.7Zm-10.25,0a10.12,10.12,0,0,0-.55-3.43,7.44,7.44,0,0,0-1.67-2.7,7.88,7.88,0,0,0-2.74-1.78,10.13,10.13,0,0,0-3.72-.64,8.5,8.5,0,0,0-6.36,2.36,8.49,8.49,0,0,0-2.31,6.19,8.49,8.49,0,0,0,2.32,6.19,8.49,8.49,0,0,0,6.35,2.37,9.48,9.48,0,0,0,4.71-1.09,7.26,7.26,0,0,0,3-3A9.38,9.38,0,0,0,305.46,20.7Z"/><path class="cls-1" d="M361.66,37.4H351.61V18.07l-9.08,11.19h-.79l-9.1-11.19V37.4h-9.76V4.05H332l10.26,12.51,10.3-12.51h9.11Z"/><path class="cls-1" d="M30.9,27.48a9.2,9.2,0,0,1-1.6,5.42,10.08,10.08,0,0,1-4.46,3.5,16.7,16.7,0,0,1-6.57,1.21c-.69,0-1.54,0-2.54-.13a29,29,0,0,1-4-.73A32,32,0,0,1,6.55,35V26.79a36.47,36.47,0,0,0,5,2.59,13.27,13.27,0,0,0,5.23,1c1.72,0,2.83-.29,3.34-.86a2.49,2.49,0,0,0,.75-1.6,2.74,2.74,0,0,0-1.29-2.27,18.67,18.67,0,0,0-3.78-1.91A29.65,29.65,0,0,1,11,21.26a11.41,11.41,0,0,1-3.38-3.4A8.83,8.83,0,0,1,6.26,13,9.11,9.11,0,0,1,7.59,8.15a9.18,9.18,0,0,1,4-3.48,15.24,15.24,0,0,1,6.64-1.3,23.22,23.22,0,0,1,5.16.54,22.25,22.25,0,0,1,3.91,1.22,22.32,22.32,0,0,1,2.55,1.31L29.46,14a27.47,27.47,0,0,0-4.56-2.63,12.74,12.74,0,0,0-5.38-1.15A4.16,4.16,0,0,0,16.8,11,2.26,2.26,0,0,0,16,12.73a2.19,2.19,0,0,0,.84,1.71,14.93,14.93,0,0,0,3,1.76A57.68,57.68,0,0,1,26,19.45a12.06,12.06,0,0,1,3.62,3.33A8,8,0,0,1,30.9,27.48Z"/><path class="cls-1" d="M70,11.94H58.47V37.18h-10V11.94H36.9V3.83H70Z"/><path class="cls-1" d="M112,20.48a17.5,17.5,0,0,1-2.16,8.59,15.48,15.48,0,0,1-6.41,6.23,21.5,21.5,0,0,1-10.37,2.31,21.16,21.16,0,0,1-10.47-2.4,15.69,15.69,0,0,1-6.36-6.33,17.65,17.65,0,0,1-2.08-8.4,17.71,17.71,0,0,1,2.06-8.41,15.47,15.47,0,0,1,6.37-6.3,21.2,21.2,0,0,1,10.48-2.4,23.22,23.22,0,0,1,8.24,1.37,16.64,16.64,0,0,1,6,3.72,15.71,15.71,0,0,1,3.53,5.46A17.93,17.93,0,0,1,112,20.48Zm-10.26,0a10.16,10.16,0,0,0-.55-3.43,7.27,7.27,0,0,0-1.67-2.69,7.65,7.65,0,0,0-2.73-1.78,10,10,0,0,0-3.73-.64A8.44,8.44,0,0,0,86.7,14.3a8.45,8.45,0,0,0-2.31,6.18,8.48,8.48,0,0,0,2.32,6.2,8.47,8.47,0,0,0,6.34,2.37A9.52,9.52,0,0,0,97.77,28a7.38,7.38,0,0,0,3-3A9.49,9.49,0,0,0,101.73,20.48Z"/><path class="cls-1" d="M150.08,34.68a23.75,23.75,0,0,1-4.24,1.73,27.78,27.78,0,0,1-4.36.93,37.55,37.55,0,0,1-4.57.27,23.66,23.66,0,0,1-7.8-1.2,16.82,16.82,0,0,1-6-3.55,15,15,0,0,1-3.8-5.48,18.41,18.41,0,0,1-1.26-6.9,17.89,17.89,0,0,1,1.49-7.54,14.64,14.64,0,0,1,4.18-5.38,17.88,17.88,0,0,1,6.11-3.17,25.17,25.17,0,0,1,7.23-1A39.24,39.24,0,0,1,149.93,5.9v8.85A36,36,0,0,0,145,12.19a14.62,14.62,0,0,0-5.7-1,12.87,12.87,0,0,0-5.43,1.15,10,10,0,0,0-4.07,3.3,8.34,8.34,0,0,0-1.54,5,8.43,8.43,0,0,0,1.35,4.63,9.49,9.49,0,0,0,3.74,3.34,11.52,11.52,0,0,0,5.4,1.24,17.62,17.62,0,0,0,4.6-.59A20.67,20.67,0,0,0,147,27.94a31.92,31.92,0,0,0,3.05-1.71Z"/><path class="cls-1" d="M193.6,37.18H181.33L168.57,21.56V37.18h-10V3.83h10V18.75L180.65,3.83h10.93L179.16,19.45Z"/><path class="cls-1" d="M231.85,37.18h-10.8l-2.63-5.92a24.53,24.53,0,0,0-2.6-4.75,5.57,5.57,0,0,0-2.25-1.93,8,8,0,0,0-2.82-.42h-1.13v13H199.56V3.83h17.11a12.43,12.43,0,0,1,6.78,1.68,10.17,10.17,0,0,1,3.82,4.09,10.48,10.48,0,0,1,1.16,4.58,8.67,8.67,0,0,1-1,4.27A7.91,7.91,0,0,1,225.4,21,19.85,19.85,0,0,1,223,22.5a9.62,9.62,0,0,1,2.66,2.23,27.57,27.57,0,0,1,2.85,5.21ZM218.18,14.37a3.46,3.46,0,0,0-1.51-3.23,10,10,0,0,0-4.94-.91h-2.11v8h2.16q3.69,0,5-.81A3.29,3.29,0,0,0,218.18,14.37Z"/><path class="cls-1" d="M272.16,20.48A17.5,17.5,0,0,1,270,29.07a15.48,15.48,0,0,1-6.41,6.23,21.5,21.5,0,0,1-10.37,2.31,21.16,21.16,0,0,1-10.47-2.4,15.69,15.69,0,0,1-6.36-6.33,17.65,17.65,0,0,1-2.08-8.4,17.6,17.6,0,0,1,2.07-8.41,15.39,15.39,0,0,1,6.36-6.3,21.2,21.2,0,0,1,10.48-2.4,23.22,23.22,0,0,1,8.24,1.37,16.64,16.64,0,0,1,6,3.72A15.88,15.88,0,0,1,271,13.92,18.13,18.13,0,0,1,272.16,20.48Zm-10.25,0a10.16,10.16,0,0,0-.56-3.43,7.27,7.27,0,0,0-1.67-2.69A7.65,7.65,0,0,0,257,12.58a10,10,0,0,0-3.73-.64,8.44,8.44,0,0,0-6.35,2.36,8.45,8.45,0,0,0-2.31,6.18,8.48,8.48,0,0,0,2.32,6.2,8.47,8.47,0,0,0,6.34,2.37,9.52,9.52,0,0,0,4.72-1.1,7.3,7.3,0,0,0,2.95-3A9.38,9.38,0,0,0,261.91,20.48Z"/><path class="cls-1" d="M315.71,20.48a17.61,17.61,0,0,1-2.15,8.59,15.54,15.54,0,0,1-6.41,6.23,21.5,21.5,0,0,1-10.37,2.31,21.11,21.11,0,0,1-10.47-2.4,15.72,15.72,0,0,1-6.37-6.33,18.06,18.06,0,0,1,0-16.81,15.41,15.41,0,0,1,6.37-6.3,21.17,21.17,0,0,1,10.48-2.4A23.26,23.26,0,0,1,305,4.74a16.6,16.6,0,0,1,6,3.72,15.59,15.59,0,0,1,3.54,5.46A18.13,18.13,0,0,1,315.71,20.48Zm-10.25,0a10.16,10.16,0,0,0-.55-3.43,7.4,7.4,0,0,0-1.67-2.69,7.61,7.61,0,0,0-2.74-1.78,9.93,9.93,0,0,0-3.72-.64,8.47,8.47,0,0,0-6.36,2.36,8.45,8.45,0,0,0-2.31,6.18,8.52,8.52,0,0,0,2.32,6.2,8.49,8.49,0,0,0,6.35,2.37,9.48,9.48,0,0,0,4.71-1.1,7.26,7.26,0,0,0,3-3A9.38,9.38,0,0,0,305.46,20.48Z"/><path class="cls-1" d="M361.66,37.18H351.61V17.86l-9.08,11.19h-.79l-9.1-11.19V37.18h-9.76V3.83H332l10.26,12.51,10.3-12.51h9.11Z"/></g></svg>