<svg id="レイヤー_1" data-name="レイヤー 1" xmlns="http://www.w3.org/2000/svg" viewBox="0 0 375 48"><defs><style>.cls-1{fill:#fff;}</style></defs><title>アートボード 2</title><path class="cls-1" d="M387.17,5.12V48h-399V19.49a45.18,45.18,0,0,1,8.21-3.56,208.14,208.14,0,0,1,20.43-6C25.32,7.79,34.51,6,44.23,4.49q12-1.87,25.19-3Q83.57.26,98.2,0c6.81-.1,13.62,0,20.42.27,6.57.29,12.94.75,19.06,1.51,5.64.69,11,1.62,16.15,2.61,7.14,1.41,14,2.93,20.42,4.64,7,1.85,13.66,3.79,20.91,5.57,6.75,1.65,13.76,3.2,21,4.65a214.51,214.51,0,0,0,31.56,3.92c7.15.4,14.34.56,21.59.43,3.35-.06,6.71-.13,10.06-.23,4.86-.16,9.68-.43,14.44-.72q13.5-.84,26.21-2.38c11.77-1.41,22.9-3.23,33.31-5.44,6.61-1.41,12.93-3,19.06-4.58C378.08,8.74,383.33,7.13,387.17,5.12Z"/></svg>