<svg id="レイヤー_1" data-name="レイヤー 1" xmlns="http://www.w3.org/2000/svg" viewBox="0 0 375 48"><defs><style>.cls-1{fill:#fff;}</style></defs><title>アートボード 1</title><path class="cls-1" d="M-11.83,40.88V-2h399V26.51A45.3,45.3,0,0,1,379,30.07a207.1,207.1,0,0,1-20.42,6c-8.51,2.11-17.7,3.89-27.42,5.41q-12,1.88-25.19,3Q291.77,45.74,277.13,46c-6.8.1-13.61,0-20.42-.27-6.56-.29-12.93-.75-19.06-1.51-5.64-.69-11-1.62-16.14-2.61-7.15-1.41-14-2.93-20.42-4.64-7-1.85-13.66-3.79-20.91-5.57q-10.14-2.47-21-4.65a214.37,214.37,0,0,0-31.55-3.92c-7.15-.4-14.35-.56-21.59-.43-3.36.06-6.71.13-10.07.23-4.86.16-9.67.43-14.44.72q-13.48.84-26.21,2.38c-11.76,1.41-22.9,3.23-33.3,5.43-6.61,1.42-12.94,3-19.06,4.59C-2.74,37.26-8,38.87-11.83,40.88Z"/></svg>