<svg width="252" height="56" viewBox="0 0 252 56" fill="none" xmlns="http://www.w3.org/2000/svg">
<path d="M37.9578 32H32.6961L31.4187 29.1172C30.95 28.0625 30.5281 27.293 30.1531 26.8086C29.7781 26.3164 29.4109 26.0039 29.0516 25.8711C28.7 25.7305 28.243 25.6602 27.6805 25.6602H27.1297V32H22.2312V15.7578H30.5633C31.907 15.7578 33.0086 16.0312 33.868 16.5781C34.7273 17.125 35.3445 17.7891 35.7195 18.5703C36.1023 19.3516 36.2937 20.0938 36.2937 20.7969C36.2937 21.6172 36.1336 22.3125 35.8133 22.8828C35.5008 23.4453 35.1687 23.8555 34.8172 24.1133C34.4656 24.3711 34.0711 24.6172 33.6336 24.8516C34.157 25.1562 34.5867 25.5195 34.9227 25.9414C35.2664 26.3555 35.7312 27.1992 36.3172 28.4727L37.9578 32ZM31.3016 20.8906C31.3016 20.1406 31.0555 19.6172 30.5633 19.3203C30.0711 19.0234 29.2703 18.875 28.1609 18.875H27.1297V22.7891H28.1844C29.3797 22.7891 30.1961 22.6602 30.6336 22.4023C31.0789 22.1367 31.3016 21.6328 31.3016 20.8906ZM51.0758 27.0547H42.6734C42.8375 27.7812 43.2398 28.375 43.8805 28.8359C44.5211 29.2969 45.2477 29.5273 46.0602 29.5273C47.482 29.5273 49.0523 29.1289 50.7711 28.332V30.9453C50.1539 31.2656 49.4039 31.5586 48.5211 31.8242C47.6461 32.082 46.5289 32.2109 45.1695 32.2109C43.7008 32.2109 42.4508 31.9375 41.4195 31.3906C40.3883 30.8438 39.6148 30.1016 39.0992 29.1641C38.5914 28.2266 38.3375 27.1641 38.3375 25.9766C38.3375 24.8047 38.5914 23.7578 39.0992 22.8359C39.6148 21.9062 40.3883 21.1797 41.4195 20.6562C42.4508 20.125 43.7008 19.8594 45.1695 19.8594C46.1383 19.8594 47.0719 20.0703 47.9703 20.4922C48.8766 20.9062 49.6187 21.5898 50.1969 22.543C50.7828 23.4883 51.0758 24.7109 51.0758 26.2109V27.0547ZM47.1148 24.9688C47.1148 24.2031 46.9234 23.5938 46.5406 23.1406C46.1656 22.6797 45.6227 22.4492 44.9117 22.4492C44.2086 22.4492 43.6383 22.6836 43.2008 23.1523C42.7711 23.6133 42.5562 24.2188 42.5562 24.9688H47.1148ZM63.0805 31.4492C62.7289 31.582 62.3578 31.707 61.9672 31.8242C61.5766 31.9336 61.1352 32.0234 60.643 32.0938C60.1586 32.1719 59.6273 32.2109 59.0492 32.2109C57.7445 32.2109 56.6391 31.9922 55.7328 31.5547C54.8344 31.1094 54.1391 30.5547 53.6469 29.8906C53.1625 29.2188 52.8266 28.5352 52.6391 27.8398C52.4516 27.1445 52.3578 26.5312 52.3578 26C52.3578 25.4688 52.4516 24.8555 52.6391 24.1602C52.8344 23.4648 53.1703 22.793 53.6469 22.1445C54.1234 21.4961 54.8109 20.9531 55.7094 20.5156C56.6156 20.0781 57.7289 19.8594 59.0492 19.8594C59.932 19.8594 60.6508 19.9219 61.2055 20.0469C61.7602 20.1719 62.3227 20.3398 62.893 20.5508V23.8672C61.518 23.4297 60.4437 23.2109 59.6703 23.2109C58.9203 23.2109 58.2523 23.4375 57.6664 23.8906C57.0883 24.3438 56.7992 25.0469 56.7992 26C56.7992 26.6328 56.9437 27.168 57.2328 27.6055C57.5219 28.0352 57.8891 28.3516 58.3344 28.5547C58.7797 28.7578 59.225 28.8594 59.6703 28.8594C60.0922 28.8594 60.5727 28.7969 61.1117 28.6719C61.6508 28.5469 62.307 28.3672 63.0805 28.1328V31.4492ZM78.0148 26.0234C78.0148 27.2109 77.757 28.2695 77.2414 29.1992C76.7258 30.1289 75.9523 30.8633 74.9211 31.4023C73.8977 31.9414 72.6477 32.2109 71.1711 32.2109C69.6945 32.2109 68.4406 31.9414 67.4094 31.4023C66.3859 30.8633 65.6164 30.1289 65.1008 29.1992C64.593 28.2695 64.3391 27.2109 64.3391 26.0234C64.3391 25.125 64.4797 24.3086 64.7609 23.5742C65.05 22.8398 65.4836 22.1914 66.0617 21.6289C66.6477 21.0586 67.3664 20.6211 68.218 20.3164C69.0695 20.0117 70.0539 19.8594 71.1711 19.8594C72.2961 19.8594 73.2883 20.0156 74.1477 20.3281C75.0148 20.6328 75.7297 21.0625 76.2922 21.6172C76.8625 22.1719 77.2922 22.8203 77.5812 23.5625C77.8703 24.3047 78.0148 25.125 78.0148 26.0234ZM73.5734 26.0234C73.5734 25.0781 73.3664 24.3398 72.9523 23.8086C72.5461 23.2695 71.9523 23 71.1711 23C70.3977 23 69.8039 23.2695 69.3898 23.8086C68.9836 24.3398 68.7805 25.0781 68.7805 26.0234C68.7805 26.9609 68.9875 27.7031 69.4016 28.25C69.8156 28.7969 70.4055 29.0703 71.1711 29.0703C71.9523 29.0703 72.5461 28.8008 72.9523 28.2617C73.3664 27.7148 73.5734 26.9688 73.5734 26.0234ZM101.176 32H96.957V25.6367C96.957 24.793 96.8164 24.1641 96.5352 23.75C96.2617 23.3281 95.8242 23.1172 95.2227 23.1172C94.6367 23.1172 94.1562 23.2969 93.7812 23.6562C93.4062 24.0078 93.0312 24.4531 92.6562 24.9922V32H88.4375V25.6367C88.4375 24.832 88.3086 24.2109 88.0508 23.7734C87.793 23.3359 87.3359 23.1172 86.6797 23.1172C86.3672 23.1172 86.0781 23.1797 85.8125 23.3047C85.5547 23.4297 85.3437 23.5703 85.1797 23.7266C85.0156 23.8828 84.8164 24.1133 84.582 24.418C84.3477 24.7227 84.1992 24.9141 84.1367 24.9922V32H79.918V20.0703H84.1367V21.7812C84.7695 21.1094 85.4141 20.6211 86.0703 20.3164C86.7266 20.0117 87.4844 19.8594 88.3437 19.8594C88.75 19.8594 89.1367 19.8984 89.5039 19.9766C89.8711 20.0469 90.2305 20.1719 90.582 20.3516C90.9414 20.5312 91.2656 20.7773 91.5547 21.0898C91.8437 21.4023 92.0742 21.7656 92.2461 22.1797C92.9258 21.4141 93.6289 20.8359 94.3555 20.4453C95.0898 20.0547 95.9336 19.8594 96.8867 19.8594C97.8398 19.8594 98.6367 20.0508 99.2773 20.4336C99.9258 20.8164 100.402 21.3711 100.707 22.0977C101.02 22.8164 101.176 23.6914 101.176 24.7227V32ZM124.641 32H120.423V25.6367C120.423 24.793 120.282 24.1641 120.001 23.75C119.727 23.3281 119.29 23.1172 118.688 23.1172C118.102 23.1172 117.622 23.2969 117.247 23.6562C116.872 24.0078 116.497 24.4531 116.122 24.9922V32H111.903V25.6367C111.903 24.832 111.774 24.2109 111.516 23.7734C111.259 23.3359 110.802 23.1172 110.145 23.1172C109.833 23.1172 109.544 23.1797 109.278 23.3047C109.02 23.4297 108.809 23.5703 108.645 23.7266C108.481 23.8828 108.282 24.1133 108.048 24.418C107.813 24.7227 107.665 24.9141 107.602 24.9922V32H103.384V20.0703H107.602V21.7812C108.235 21.1094 108.88 20.6211 109.536 20.3164C110.192 20.0117 110.95 19.8594 111.809 19.8594C112.216 19.8594 112.602 19.8984 112.97 19.9766C113.337 20.0469 113.696 20.1719 114.048 20.3516C114.407 20.5312 114.731 20.7773 115.02 21.0898C115.309 21.4023 115.54 21.7656 115.712 22.1797C116.391 21.4141 117.095 20.8359 117.821 20.4453C118.555 20.0547 119.399 19.8594 120.352 19.8594C121.305 19.8594 122.102 20.0508 122.743 20.4336C123.391 20.8164 123.868 21.3711 124.173 22.0977C124.485 22.8164 124.641 23.6914 124.641 24.7227V32ZM139.084 27.0547H130.681C130.845 27.7812 131.248 28.375 131.888 28.8359C132.529 29.2969 133.255 29.5273 134.068 29.5273C135.49 29.5273 137.06 29.1289 138.779 28.332V30.9453C138.162 31.2656 137.412 31.5586 136.529 31.8242C135.654 32.082 134.537 32.2109 133.177 32.2109C131.709 32.2109 130.459 31.9375 129.427 31.3906C128.396 30.8438 127.623 30.1016 127.107 29.1641C126.599 28.2266 126.345 27.1641 126.345 25.9766C126.345 24.8047 126.599 23.7578 127.107 22.8359C127.623 21.9062 128.396 21.1797 129.427 20.6562C130.459 20.125 131.709 19.8594 133.177 19.8594C134.146 19.8594 135.08 20.0703 135.978 20.4922C136.884 20.9062 137.627 21.5898 138.205 22.543C138.791 23.4883 139.084 24.7109 139.084 26.2109V27.0547ZM135.123 24.9688C135.123 24.2031 134.931 23.5938 134.548 23.1406C134.173 22.6797 133.63 22.4492 132.92 22.4492C132.216 22.4492 131.646 22.6836 131.209 23.1523C130.779 23.6133 130.564 24.2188 130.564 24.9688H135.123ZM153.608 32H149.389V25.5664C149.389 24.9102 149.28 24.3398 149.061 23.8555C148.85 23.3633 148.381 23.1172 147.655 23.1172C147.311 23.1172 147.006 23.1836 146.741 23.3164C146.483 23.4414 146.248 23.6055 146.037 23.8086C145.834 24.0117 145.662 24.207 145.522 24.3945C145.381 24.582 145.237 24.7812 145.088 24.9922V32H140.87V20.0703H145.088V21.7812C145.752 21.0703 146.416 20.5742 147.08 20.293C147.752 20.0039 148.498 19.8594 149.319 19.8594C152.178 19.8594 153.608 21.5703 153.608 24.9922V32ZM168.472 32H164.241V30.9219C163.796 31.2969 163.323 31.6055 162.823 31.8477C162.331 32.0898 161.648 32.2109 160.773 32.2109C159.905 32.2109 159.054 31.9961 158.218 31.5664C157.382 31.1367 156.695 30.4688 156.155 29.5625C155.616 28.6484 155.347 27.5 155.347 26.1172C155.347 25.0312 155.55 24.0156 155.956 23.0703C156.363 22.1172 156.999 21.3438 157.866 20.75C158.734 20.1562 159.796 19.8594 161.054 19.8594C161.835 19.8594 162.468 19.9453 162.952 20.1172C163.437 20.2891 163.866 20.5078 164.241 20.7734V15.7578H168.472V32ZM164.241 28.2031V23.6445C163.749 23.3711 163.363 23.1758 163.081 23.0586C162.808 22.9414 162.484 22.8828 162.109 22.8828C161.445 22.8828 160.89 23.1641 160.445 23.7266C160.007 24.2891 159.788 25.0547 159.788 26.0234C159.788 27.0781 160.019 27.8477 160.48 28.332C160.948 28.8086 161.491 29.0469 162.109 29.0469C162.616 29.0469 163.027 28.9688 163.339 28.8125C163.652 28.6484 163.952 28.4453 164.241 28.2031Z" fill="#333333"/>
<path d="M194.903 37.9539C193.471 37.4554 192.3 36.6006 191.475 35.9596C188.003 33.3243 186.137 29.7273 188.003 25.7031C189.305 22.8897 193.341 20.6817 197.377 21.0378C201.76 21.4295 204.625 24.1005 204.972 27.4125C205.145 28.9082 204.495 30.2971 203.583 31.508C201.587 34.1433 198.766 36.3514 195.554 37.669C189.826 40.0551 183.75 41.8714 177.414 43.0822C167.302 44.9697 157.104 46.323 146.862 47.6051C135.578 49.0296 124.295 50.4541 113.054 51.8786C104.288 52.9826 95.5214 53.6949 86.6682 54.2647C81.2868 54.6208 75.9054 54.7276 70.524 54.8345C63.9709 54.9413 57.4612 55.0482 50.908 54.9769C40.449 54.8701 29.9467 54.7633 19.5311 53.8373C14.7139 53.41 9.94005 52.7333 5.33983 51.5225C4.42846 51.2732 3.34351 51.0951 2.69253 50.3116C2.38874 49.9555 1.60758 49.9555 1 49.9911" stroke="black" stroke-width="2" stroke-miterlimit="10" stroke-linecap="round" stroke-linejoin="round"/>
<path d="M194 37.97C194.683 38.4474 195.366 38.7563 195.963 38.981C198.467 39.992 201.141 40.6379 203.872 40.8064C205.295 40.9187 206.802 40.694 208.253 40.5817C209.505 40.4975 213.687 39.1495 215.167 38.2509C218.069 36.5097 220.402 34.207 222.934 31.146" stroke="black" stroke-width="2" stroke-miterlimit="10" stroke-linecap="round" stroke-linejoin="round"/>
<path d="M226.081 32.6479C224.186 33.2367 223.282 33.6729 221.926 33.7819C221.754 33.8037 221.56 33.7819 221.431 33.6729C221.301 33.5638 221.237 33.3894 221.237 33.2149C221.237 32.7787 221.258 32.5388 221.323 31.7973C221.344 31.4266 221.366 31.4266 221.409 30.9031C221.431 30.576 221.538 29.5074 221.689 28.9622C222.098 29.2021 222.356 29.5074 222.701 29.7909C223.088 30.118 223.454 30.4234 223.842 30.7505C224.229 31.0776 224.595 31.3829 224.983 31.7101C225.177 31.8627 225.37 32.0372 225.564 32.1899C225.586 32.2335 226.038 32.6697 226.081 32.6479Z" fill="black" stroke="black" stroke-width="2" stroke-miterlimit="10" stroke-linecap="round" stroke-linejoin="round"/>
<path d="M222.572 23.5969C222.55 23.6405 222.55 23.6842 222.529 23.7278C222.163 25.4289 222.012 27.2608 221.646 28.9619" stroke="black" stroke-width="2" stroke-miterlimit="10" stroke-linecap="round" stroke-linejoin="round"/>
<path d="M249.699 7.50219C249.785 7.56762 249.806 7.67666 249.763 7.78571C249.505 8.39636 249.053 8.81072 248.687 9.2469C243.52 15.6369 238.31 21.9833 233.121 28.3515C232.733 28.8094 232.346 29.2892 231.915 29.6818C231.765 29.8127 231.506 29.7254 231.506 29.5073C231.485 29.1366 231.42 28.7876 231.334 28.6132C230.947 27.8717 230.387 27.4355 229.526 27.4791C228.987 27.5227 228.923 27.3919 228.794 26.8466C228.621 25.4509 227.566 24.5349 226.059 25.0583C225.909 25.1237 225.736 25.0147 225.715 24.8402C225.693 24.644 225.693 24.4259 225.65 24.2078C225.564 23.5753 225.155 23.0519 224.509 22.7684C223.777 22.4194 222.808 22.812 222.572 23.5971C223.067 21.9615 225.263 19.8024 225.564 19.4098C229.073 14.939 231.549 12.1475 235.102 7.69847C236.846 5.47397 238.633 3.27127 240.419 1.06858C241.281 -5.34803e-05 241.302 -5.34803e-05 242.228 0.806874C243.778 2.15902 245.328 3.53298 246.878 4.90694C247.847 5.75748 248.773 6.65165 249.699 7.50219Z" fill="#  rgb(232, 240, 254)" stroke="black" stroke-width="2" stroke-miterlimit="10" stroke-linecap="round" stroke-linejoin="round"/>
<path d="M226.081 32.6479C227.674 31.8846 229.289 31.2085 230.86 30.4234C231.076 30.3143 231.7 29.8345 231.894 29.6819" stroke="black" stroke-width="2" stroke-miterlimit="10" stroke-linecap="round" stroke-linejoin="round"/>
</svg>
